<svg width="148" height="101" viewBox="0 0 148 101" fill="none" xmlns="http://www.w3.org/2000/svg">
<path d="M0.78125 81.4062C0.78125 80.7396 0.84375 79.8333 0.96875 78.6875C1.11458 77.5417 1.32292 76.3125 1.59375 75C1.88542 73.6875 2.23958 72.3646 2.65625 71.0312C3.07292 69.6771 3.5625 68.4583 4.125 67.375C4.70833 66.2917 5.36458 65.4062 6.09375 64.7187C6.84375 64.0312 7.66667 63.6875 8.5625 63.6875C9.08333 63.6875 9.52083 63.7812 9.875 63.9687C10.25 64.1562 10.5521 64.4167 10.7812 64.75C11.0312 65.0625 11.2083 65.4271 11.3125 65.8437C11.4375 66.2396 11.5 66.6771 11.5 67.1562C11.125 67.1562 10.8229 67.0625 10.5937 66.875C10.3646 66.6667 10.1562 66.4479 9.96875 66.2187C9.78125 65.9896 9.58333 65.7812 9.375 65.5937C9.1875 65.3854 8.92708 65.2812 8.59375 65.2812C7.92708 65.2812 7.3125 65.6042 6.75 66.25C6.1875 66.875 5.67708 67.6771 5.21875 68.6562C4.76042 69.6354 4.35417 70.7292 4 71.9375C3.64583 73.125 3.34375 74.2917 3.09375 75.4375C2.86458 76.5625 2.6875 77.5937 2.5625 78.5312C2.4375 79.4479 2.375 80.1354 2.375 80.5937C2.375 81.1979 2.40625 81.7917 2.46875 82.375C2.53125 82.9375 2.66667 83.4479 2.875 83.9062C3.08333 84.3646 3.38542 84.7396 3.78125 85.0312C4.17708 85.3021 4.73958 85.4375 5.46875 85.4375C6.30208 85.4375 7.125 85.1667 7.9375 84.625C8.77083 84.0833 9.54167 83.4271 10.25 82.6562C10.9583 81.8646 11.5729 81.0312 12.0937 80.1562C12.6146 79.2604 12.9896 78.4792 13.2187 77.8125C13.2604 77.7917 13.3542 77.7812 13.5 77.7812C13.6458 77.7604 13.7396 77.75 13.7812 77.75C14.0312 77.75 14.2604 77.7812 14.4687 77.8437C14.6979 77.8854 14.8125 78.0729 14.8125 78.4062C14.6875 79.0729 14.3958 79.7812 13.9375 80.5312C13.4792 81.2604 12.9375 81.9792 12.3125 82.6875C11.6875 83.3958 11 84.0521 10.25 84.6562C9.5 85.2604 8.77083 85.7708 8.0625 86.1875C7.35417 86.6042 6.69792 86.8854 6.09375 87.0312C5.48958 87.1979 5 87.1875 4.625 87C3.9375 87 3.34375 86.8125 2.84375 86.4375C2.36458 86.0417 1.96875 85.5625 1.65625 85C1.36458 84.4375 1.14583 83.8333 1 83.1875C0.854167 82.5417 0.78125 81.9479 0.78125 81.4062ZM27.625 73.3437C26.8542 73.0521 26.1146 73.1667 25.4062 73.6875C24.6979 74.2083 24.0208 74.9479 23.375 75.9062C22.7292 76.8437 22.1146 77.9167 21.5312 79.125C20.9479 80.3333 20.4062 81.4792 19.9062 82.5625C19.4062 83.6458 18.9479 84.5729 18.5312 85.3437C18.1354 86.1146 17.7708 86.5417 17.4375 86.625C17.1875 86.625 16.9896 86.5833 16.8437 86.5C16.7187 86.3958 16.6562 86.1562 16.6562 85.7812V63.8125C16.6562 63.625 16.7292 63.5104 16.875 63.4687C17.0417 63.4271 17.2187 63.4167 17.4062 63.4375C17.5937 63.4583 17.7708 63.5104 17.9375 63.5937C18.1042 63.6562 18.2083 63.7292 18.25 63.8125L18.6562 81.4062C18.8854 81.0312 19.0937 80.5104 19.2812 79.8437C19.4896 79.1562 19.7292 78.4271 20 77.6562C20.2708 76.8646 20.5833 76.0833 20.9375 75.3125C21.3125 74.5208 21.7708 73.8125 22.3125 73.1875C22.8542 72.5625 23.5104 72.0833 24.2812 71.75C25.0729 71.3958 26 71.2708 27.0625 71.375C27.7708 71.375 28.3437 71.6042 28.7812 72.0625C29.2187 72.5 29.4479 73.0833 29.4687 73.8125L29.7812 86.2812C29.7812 86.3646 29.7604 86.4896 29.7187 86.6562C29.6979 86.8021 29.6146 86.9271 29.4687 87.0312C29.3437 87.1562 29.1562 87.2292 28.9062 87.25C28.6771 87.2917 28.375 87.2396 28 87.0937L27.625 73.3437ZM32.25 80.25C32.1458 80.2708 31.9896 80.3021 31.7812 80.3437C31.5729 80.3854 31.3542 80.3958 31.125 80.375C30.8958 80.3542 30.6979 80.2917 30.5312 80.1875C30.3437 80.0833 30.25 79.9062 30.25 79.6562C30.25 79.5104 30.2812 79.4062 30.3437 79.3437C30.4062 79.2812 30.5104 79.1875 30.6562 79.0625C31.1146 78.6875 31.5 78.2083 31.8125 77.625C32.1458 77.0208 32.4479 76.3854 32.7187 75.7187C32.9896 75.0312 33.2708 74.3542 33.5625 73.6875C33.875 73 34.2292 72.3854 34.625 71.8437C35.0208 71.3021 35.5104 70.8646 36.0937 70.5312C36.6771 70.1979 37.3958 70.0417 38.25 70.0625C38.6042 70.0625 39 70.1458 39.4375 70.3125C39.875 70.4792 40.2812 70.7083 40.6562 71C41.0312 71.2708 41.3437 71.6042 41.5937 72C41.8437 72.3958 41.9687 72.8333 41.9687 73.3125C42.0729 73.4792 41.9687 73.7187 41.6562 74.0312C41.3646 74.3437 40.9583 74.6875 40.4375 75.0625C39.9167 75.4167 39.3229 75.7917 38.6562 76.1875C38.0104 76.5625 37.3854 76.9167 36.7812 77.25C36.1771 77.5833 35.6458 77.875 35.1875 78.125C34.7292 78.375 34.4271 78.5625 34.2812 78.6875C34.1771 78.8958 34.0937 79.1354 34.0312 79.4062C33.9687 79.6771 33.9167 79.9375 33.875 80.1875C33.8542 80.4167 33.8333 80.6354 33.8125 80.8437C33.8125 81.0312 33.8125 81.1771 33.8125 81.2812C33.8125 81.6771 33.7917 82.1146 33.75 82.5937C33.7292 83.0729 33.75 83.5312 33.8125 83.9687C33.8958 84.3854 34.0729 84.7396 34.3437 85.0312C34.6146 85.3021 35.0729 85.4375 35.7187 85.4375C36.4062 85.4375 37.0521 85.2708 37.6562 84.9375C38.2604 84.5833 38.8229 84.1562 39.3437 83.6562C39.8646 83.1562 40.3333 82.6146 40.75 82.0312C41.1875 81.4479 41.5729 80.9062 41.9062 80.4062C42.2604 79.8854 42.5729 79.4583 42.8437 79.125C43.1146 78.7917 43.3437 78.625 43.5312 78.625C43.7396 78.625 43.9583 78.6667 44.1875 78.75C44.4375 78.8125 44.5625 78.9792 44.5625 79.25C44.5625 79.625 44.4062 80.0729 44.0937 80.5937C43.8021 81.1146 43.4062 81.6667 42.9062 82.25C42.4271 82.8333 41.8646 83.4167 41.2187 84C40.5937 84.5625 39.9583 85.0729 39.3125 85.5312C38.6667 85.9687 38.0312 86.3333 37.4062 86.625C36.7812 86.8958 36.2292 87.0312 35.75 87.0312C34.8125 87.0312 34.1042 86.8021 33.625 86.3437C33.1458 85.8854 32.8021 85.3125 32.5937 84.625C32.4062 83.9375 32.3021 83.2083 32.2812 82.4375C32.2812 81.6458 32.2708 80.9167 32.25 80.25ZM38 71.8125C37.6458 71.8125 37.2708 71.9896 36.875 72.3437C36.4792 72.6771 36.1042 73.0937 35.75 73.5937C35.4167 74.0729 35.1354 74.5729 34.9062 75.0937C34.6979 75.5937 34.5937 76.0104 34.5937 76.3437C34.9062 76.3437 35.3542 76.2292 35.9375 76C36.5417 75.75 37.1354 75.4479 37.7187 75.0937C38.3021 74.7396 38.8125 74.3646 39.25 73.9687C39.6875 73.5729 39.9062 73.1979 39.9062 72.8437C39.9062 72.6562 39.8333 72.5 39.6875 72.375C39.5417 72.25 39.3646 72.1458 39.1562 72.0625C38.9687 71.9792 38.7708 71.9167 38.5625 71.875C38.3542 71.8333 38.1667 71.8125 38 71.8125ZM46.125 79.8125C46.1875 79.0625 46.25 78.25 46.3125 77.375C46.375 76.4792 46.4687 75.5937 46.5937 74.7187C46.7396 73.8437 46.9167 73.0104 47.125 72.2187C47.3542 71.4271 47.6458 70.7292 48 70.125C48.375 69.5 48.8333 69.0104 49.375 68.6562C49.9167 68.2812 50.5729 68.1042 51.3437 68.125C51.8646 68.125 52.2604 68.3437 52.5312 68.7812C52.8229 69.2187 53.0208 69.75 53.125 70.375C53.25 71 53.3125 71.6458 53.3125 72.3125C53.3333 72.9583 53.3437 73.4896 53.3437 73.9062C52.9271 73.9062 52.5833 73.7292 52.3125 73.375C52.0417 73 51.8333 72.5729 51.6875 72.0937C51.5417 71.6146 51.4375 71.1458 51.375 70.6875L51.2812 69.7812C51.2604 69.7812 51.2187 69.7812 51.1562 69.7812C51.1146 69.7604 51.0833 69.75 51.0625 69.75C50.7083 69.75 50.375 69.9479 50.0625 70.3437C49.7708 70.7396 49.4896 71.25 49.2187 71.875C48.9687 72.4792 48.75 73.1667 48.5625 73.9375C48.375 74.6875 48.2187 75.4271 48.0937 76.1562C47.9687 76.8854 47.8646 77.5625 47.7812 78.1875C47.7187 78.7917 47.6875 79.2604 47.6875 79.5937C47.6458 80.1354 47.6458 80.7292 47.6875 81.375C47.7292 82.0208 47.8542 82.625 48.0625 83.1875C48.2708 83.75 48.5625 84.2396 48.9375 84.6562C49.3125 85.0521 49.8125 85.3229 50.4375 85.4687C51.2083 85.4687 51.8333 85.3646 52.3125 85.1562C52.7917 84.9479 53.1771 84.6667 53.4687 84.3125C53.7812 83.9583 54.0208 83.5625 54.1875 83.125C54.3542 82.6875 54.5104 82.2396 54.6562 81.7812C54.8229 81.3021 54.9896 80.8333 55.1562 80.375C55.3229 79.9167 55.5625 79.4896 55.875 79.0937C56.125 79.0312 56.3021 79.0417 56.4062 79.125C56.5312 79.1875 56.6146 79.2812 56.6562 79.4062C56.6979 79.5312 56.7187 79.6771 56.7187 79.8437V80.1875C56.7187 81.0625 56.5729 81.9062 56.2812 82.7187C55.9896 83.5312 55.5625 84.2604 55 84.9062C54.4375 85.5312 53.7604 86.0417 52.9687 86.4375C52.1979 86.8125 51.3125 87 50.3125 87C49.4792 87 48.7812 86.7396 48.2187 86.2187C47.6771 85.6771 47.25 85.0312 46.9375 84.2812C46.6458 83.5312 46.4375 82.75 46.3125 81.9375C46.1875 81.1042 46.125 80.3958 46.125 79.8125ZM59.5312 63C59.9687 62.5833 60.3125 62.4167 60.5625 62.5C60.8333 62.5833 61.0312 62.8646 61.1562 63.3437C61.2812 63.8229 61.3542 64.4479 61.375 65.2187C61.3958 65.9896 61.3854 66.8646 61.3437 67.8437C61.3229 68.8021 61.2708 69.8229 61.1875 70.9062C61.1042 71.9687 61.0312 73.0208 60.9687 74.0625C60.9062 75.0833 60.8646 76.0625 60.8437 77C60.8229 77.9375 60.8542 78.75 60.9375 79.4375H61.0312C61.0729 79.4375 61.1042 79.4271 61.125 79.4062C62.2083 78.3229 63.1771 77.1771 64.0312 75.9687C64.8854 74.7604 65.6562 73.625 66.3437 72.5625C67.0312 71.4792 67.6354 70.5417 68.1562 69.75C68.6979 68.9583 69.1979 68.4167 69.6562 68.125C69.9687 68.125 70.2292 68.1771 70.4375 68.2812C70.6667 68.3854 70.7812 68.625 70.7812 69C70.7812 69.0417 70.7708 69.1146 70.75 69.2187C70.75 69.3021 70.75 69.3646 70.75 69.4062C70.2292 70.4687 69.6562 71.5417 69.0312 72.625C68.4062 73.6875 67.7292 74.7187 67 75.7187C66.2708 76.7187 65.4792 77.6667 64.625 78.5625C63.7917 79.4583 62.8854 80.2708 61.9062 81C61.9062 81.0208 61.8958 81.0625 61.875 81.125C61.875 81.1667 61.875 81.1979 61.875 81.2187C61.875 81.4271 62.0417 81.6562 62.375 81.9062C62.7292 82.1562 63.1667 82.3958 63.6875 82.625C64.2292 82.8542 64.8229 83.0833 65.4687 83.3125C66.1354 83.5417 66.7812 83.7396 67.4062 83.9062C68.0521 84.0729 68.6458 84.2083 69.1875 84.3125C69.75 84.4167 70.1875 84.4687 70.5 84.4687C70.5 84.5521 70.5 84.7083 70.5 84.9375C70.5208 85.1667 70.5104 85.4062 70.4687 85.6562C70.4271 85.9062 70.3542 86.1354 70.25 86.3437C70.1458 86.5312 69.9792 86.625 69.75 86.625H69.625C69.5833 86.625 69.5521 86.6146 69.5312 86.5937L60.5937 83C60.5729 84.2292 60.4896 85.2292 60.3437 86C60.1979 86.75 60.0208 87.3021 59.8125 87.6562C59.625 88.0312 59.4167 88.2083 59.1875 88.1875C58.9792 88.1667 58.7917 88 58.625 87.6875L59.5312 63ZM87.25 86.375C87.25 85.0208 87.2187 83.5937 87.1562 82.0937C87.1146 80.5937 87.0625 79.0833 87 77.5625C86.9583 76.0208 86.9479 74.5104 86.9687 73.0312C86.9896 71.5521 87.0833 70.1667 87.25 68.875C87.2917 68.8542 87.3854 68.8437 87.5312 68.8437C87.6979 68.8229 87.8125 68.8125 87.875 68.8125C88.1667 68.8125 88.3958 68.8646 88.5625 68.9687C88.75 69.0521 88.8437 69.25 88.8437 69.5625C88.8437 70.7917 88.8333 72.1354 88.8125 73.5937C88.8125 75.0312 88.8021 76.5 88.7812 78C88.7812 79.4792 88.7812 80.9479 88.7812 82.4062C88.7812 83.8646 88.8021 85.1875 88.8437 86.375C88.8646 86.7292 88.7917 86.9583 88.625 87.0625C88.4792 87.1875 88.2917 87.25 88.0625 87.25C87.8125 87.25 87.6042 87.1875 87.4375 87.0625C87.2708 86.9583 87.2083 86.7292 87.25 86.375ZM86.5625 64C86.5625 63.75 86.6458 63.5833 86.8125 63.5C86.9792 63.4167 87.1667 63.375 87.375 63.375C87.7917 63.375 88.0521 63.5104 88.1562 63.7812C88.2604 64.0521 88.3125 64.3646 88.3125 64.7187C88.1875 64.9479 88.0312 65.1146 87.8437 65.2187C87.6562 65.3021 87.4583 65.3229 87.25 65.2812C87.0625 65.2187 86.8958 65.0833 86.75 64.875C86.625 64.6667 86.5625 64.375 86.5625 64ZM91.8437 73.6562C91.6354 73.7604 91.4375 73.875 91.25 74C91.0833 74.1042 90.9167 74.2083 90.75 74.3125C90.5833 74.3958 90.4167 74.4583 90.25 74.5C90.0833 74.5417 89.9062 74.5417 89.7187 74.5C89.5937 74.5 89.4896 74.4271 89.4062 74.2812C89.3229 74.1146 89.2604 73.9375 89.2187 73.75C89.1562 73.5417 89.1146 73.3437 89.0937 73.1562C89.0729 72.9479 89.0729 72.7917 89.0937 72.6875L92.0937 70.9687L92.2812 62.9687C92.3229 62.6979 92.4896 62.5937 92.7812 62.6562C93.0729 62.6979 93.375 62.7604 93.6875 62.8437C93.7292 62.8437 93.7917 62.8646 93.875 62.9062C93.9792 62.9271 94.0521 62.9479 94.0937 62.9687C94.0521 63.5312 94 64.1458 93.9375 64.8125C93.8958 65.4583 93.8542 66.1146 93.8125 66.7812C93.7708 67.4271 93.7396 68.0625 93.7187 68.6875C93.7187 69.3125 93.75 69.875 93.8125 70.375L98.5 69.0625C98.5833 69.0417 98.6458 69.1042 98.6875 69.25C98.75 69.375 98.8021 69.5312 98.8437 69.7187C98.9062 69.9062 98.9479 70.0937 98.9687 70.2812C98.9896 70.4687 99 70.5625 99 70.5625L93.6875 72.8125C93.6875 73 93.6979 73.4479 93.7187 74.1562C93.7604 74.8646 93.8021 75.7083 93.8437 76.6875C93.8854 77.6458 93.9271 78.6875 93.9687 79.8125C94.0104 80.9167 94.0521 81.9479 94.0937 82.9062C94.1354 83.8646 94.1667 84.7083 94.1875 85.4375C94.2083 86.1458 94.2187 86.5937 94.2187 86.7812C94.1771 87.4062 93.9896 87.7187 93.6562 87.7187C93.3437 87.7187 93 87.5625 92.625 87.25L91.8437 73.6562ZM113.969 82.7187C113.823 81.7604 113.75 80.8333 113.75 79.9375C113.75 79.0208 113.802 78.0937 113.906 77.1562C114.031 76.2187 114.198 75.25 114.406 74.25C114.635 73.2292 114.896 72.1354 115.187 70.9687C115.187 70.7396 115.25 70.5312 115.375 70.3437C115.5 70.1354 115.667 69.9687 115.875 69.8437C116.083 69.6979 116.302 69.5833 116.531 69.5C116.76 69.4167 116.979 69.375 117.187 69.375C117.646 69.375 118.062 69.5208 118.437 69.8125C118.812 70.1042 119.146 70.4583 119.437 70.875C119.75 71.2917 120.01 71.7396 120.219 72.2187C120.448 72.6771 120.635 73.0729 120.781 73.4062C120.948 74.1354 121.062 74.9687 121.125 75.9062C121.208 76.8229 121.219 77.7604 121.156 78.7187C121.094 79.6771 120.948 80.625 120.719 81.5625C120.49 82.4792 120.167 83.3229 119.75 84.0937C119.333 84.8646 118.792 85.5104 118.125 86.0312C117.479 86.5521 116.708 86.875 115.812 87C115.333 87 114.969 86.8437 114.719 86.5312C114.469 86.1979 114.281 85.8021 114.156 85.3437C114.052 84.8646 113.99 84.3854 113.969 83.9062C113.969 83.4271 113.969 83.0312 113.969 82.7187ZM115.562 82.625C115.562 82.8333 115.562 83.0312 115.562 83.2187C115.583 83.4062 115.604 83.5937 115.625 83.7812C115.667 83.9479 115.708 84.1354 115.75 84.3437C115.812 84.5312 115.885 84.75 115.969 85H116.156C116.656 85 117.083 84.8333 117.437 84.5C117.792 84.1667 118.094 83.7396 118.344 83.2187C118.594 82.6771 118.802 82.0833 118.969 81.4375C119.135 80.7708 119.26 80.125 119.344 79.5C119.448 78.8542 119.51 78.2604 119.531 77.7187C119.573 77.1562 119.594 76.7083 119.594 76.375V75.75C119.594 75.4792 119.583 75.1771 119.562 74.8437C119.542 74.4896 119.5 74.1354 119.437 73.7812C119.396 73.4062 119.323 73.0729 119.219 72.7812C119.115 72.4687 118.979 72.2187 118.812 72.0312C118.646 71.8437 118.427 71.75 118.156 71.75C117.698 71.6042 117.302 71.6354 116.969 71.8437C116.656 72.0521 116.396 72.4062 116.187 72.9062C116 73.3854 115.854 73.9792 115.75 74.6875C115.646 75.3958 115.583 76.1771 115.562 77.0312C115.542 77.8854 115.531 78.7917 115.531 79.75C115.552 80.7083 115.562 81.6667 115.562 82.625ZM130.469 83.375C130.385 83.625 130.177 83.9687 129.844 84.4062C129.531 84.8229 129.156 85.25 128.719 85.6875C128.281 86.1042 127.823 86.4792 127.344 86.8125C126.885 87.125 126.479 87.2812 126.125 87.2812C125.458 87.2812 124.906 86.9687 124.469 86.3437C124.052 85.7187 123.729 84.9167 123.5 83.9375C123.271 82.9583 123.115 81.875 123.031 80.6875C122.948 79.4792 122.896 78.3021 122.875 77.1562C122.854 76.0104 122.844 74.9687 122.844 74.0312C122.844 73.0937 122.812 72.3854 122.75 71.9062C122.833 71.6979 122.937 71.5729 123.062 71.5312C123.208 71.4896 123.375 71.4687 123.562 71.4687C123.729 71.4687 123.875 71.4896 124 71.5312C124.146 71.5729 124.271 71.6979 124.375 71.9062C124.375 72.1354 124.375 72.5208 124.375 73.0625C124.396 73.6042 124.427 74.2187 124.469 74.9062C124.51 75.5729 124.552 76.2812 124.594 77.0312C124.635 77.7604 124.667 78.4583 124.687 79.125C124.729 79.7917 124.76 80.3958 124.781 80.9375C124.823 81.4583 124.854 81.8437 124.875 82.0937C124.896 82.2396 124.917 82.4792 124.937 82.8125C124.979 83.1458 125.031 83.5 125.094 83.875C125.177 84.2292 125.271 84.5521 125.375 84.8437C125.5 85.1354 125.656 85.2917 125.844 85.3125C126.156 85.3125 126.469 85.1771 126.781 84.9062C127.115 84.6354 127.437 84.2917 127.75 83.875C128.062 83.4583 128.354 83 128.625 82.5C128.896 82 129.135 81.5208 129.344 81.0625C129.573 80.5833 129.74 80.1562 129.844 79.7812C129.969 79.4062 130.042 79.1354 130.062 78.9687C130.104 78.6146 130.146 78.1146 130.187 77.4687C130.229 76.8021 130.26 76.0937 130.281 75.3437C130.302 74.5937 130.312 73.8854 130.312 73.2187C130.333 72.5521 130.344 72.0417 130.344 71.6875L132.062 71.7812C132.083 73.4687 132.073 75 132.031 76.375C131.99 77.7292 131.979 79.0104 132 80.2187C132.021 81.4062 132.115 82.5625 132.281 83.6875C132.448 84.8125 132.75 85.9792 133.187 87.1875C133.125 87.25 133 87.3333 132.812 87.4375C132.625 87.5625 132.49 87.625 132.406 87.625C131.885 87.625 131.531 87.4479 131.344 87.0937C131.177 86.7604 131.062 86.3646 131 85.9062C130.958 85.4271 130.917 84.9583 130.875 84.5C130.854 84.0208 130.719 83.6458 130.469 83.375ZM135.781 73.6562C135.573 73.7604 135.375 73.875 135.187 74C135.021 74.1042 134.854 74.2083 134.687 74.3125C134.521 74.3958 134.354 74.4583 134.187 74.5C134.021 74.5417 133.844 74.5417 133.656 74.5C133.531 74.5 133.427 74.4271 133.344 74.2812C133.26 74.1146 133.198 73.9375 133.156 73.75C133.094 73.5417 133.052 73.3437 133.031 73.1562C133.01 72.9479 133.01 72.7917 133.031 72.6875L136.031 70.9687L136.219 62.9687C136.26 62.6979 136.427 62.5937 136.719 62.6562C137.01 62.6979 137.312 62.7604 137.625 62.8437C137.667 62.8437 137.729 62.8646 137.812 62.9062C137.917 62.9271 137.99 62.9479 138.031 62.9687C137.99 63.5312 137.937 64.1458 137.875 64.8125C137.833 65.4583 137.792 66.1146 137.75 66.7812C137.708 67.4271 137.677 68.0625 137.656 68.6875C137.656 69.3125 137.687 69.875 137.75 70.375L142.437 69.0625C142.521 69.0417 142.583 69.1042 142.625 69.25C142.687 69.375 142.74 69.5312 142.781 69.7187C142.844 69.9062 142.885 70.0937 142.906 70.2812C142.927 70.4687 142.937 70.5625 142.937 70.5625L137.625 72.8125C137.625 73 137.635 73.4479 137.656 74.1562C137.698 74.8646 137.74 75.7083 137.781 76.6875C137.823 77.6458 137.865 78.6875 137.906 79.8125C137.948 80.9167 137.99 81.9479 138.031 82.9062C138.073 83.8646 138.104 84.7083 138.125 85.4375C138.146 86.1458 138.156 86.5937 138.156 86.7812C138.115 87.4062 137.927 87.7187 137.594 87.7187C137.281 87.7187 136.937 87.5625 136.562 87.25L135.781 73.6562ZM143.25 71.7187C143.25 69.8021 143.292 67.9062 143.375 66.0312C143.458 64.1354 143.562 62.1875 143.687 60.1875C143.75 60.0208 143.823 59.9167 143.906 59.875C143.99 59.8125 144.104 59.7812 144.25 59.7812C144.458 59.7812 144.604 59.8437 144.687 59.9687C144.771 60.0729 144.823 60.1979 144.844 60.3437C144.885 60.4896 144.896 60.6562 144.875 60.8437C144.875 61.0104 144.875 61.1562 144.875 61.2812V70.8437C144.875 71.2187 144.906 71.6146 144.969 72.0312L145.156 73.2812C145.24 73.6979 145.292 74.0937 145.312 74.4687C145.354 74.8229 145.333 75.125 145.25 75.375C145.208 75.6042 145.083 75.8021 144.875 75.9687C144.687 76.1354 144.479 76.2187 144.25 76.2187C143.875 76.2187 143.615 76.0312 143.469 75.6562C143.323 75.2812 143.229 74.8437 143.187 74.3437C143.167 73.8437 143.167 73.3437 143.187 72.8437C143.229 72.3437 143.25 71.9687 143.25 71.7187ZM145.219 86.25V85.75C145.219 85.6458 145.229 85.5417 145.25 85.4375C145.271 85.3125 145.312 85.2083 145.375 85.125C145.437 85.0417 145.531 85 145.656 85C146.073 85 146.312 85.1042 146.375 85.3125C146.458 85.5 146.5 85.7292 146.5 86C146.5 86.2917 146.458 86.5312 146.375 86.7187C146.312 86.9062 146.073 87 145.656 87C145.531 87 145.437 86.9583 145.375 86.875C145.312 86.7917 145.271 86.6979 145.25 86.5937C145.229 86.4687 145.219 86.3542 145.219 86.25Z" fill="#B93160"/>
<path d="M128.637 13.1256C128.929 12.8327 128.929 12.3579 128.637 12.065L123.864 7.29199C123.571 6.9991 123.096 6.9991 122.803 7.29199C122.51 7.58488 122.51 8.05976 122.803 8.35265L127.046 12.5953L122.803 16.8379C122.51 17.1308 122.51 17.6057 122.803 17.8986C123.096 18.1915 123.571 18.1915 123.864 17.8986L128.637 13.1256ZM77.2328 50.6608C79.431 40.6474 86.784 31.314 96.3256 24.4696C105.863 17.6281 117.49 13.3453 128.106 13.3453L128.106 11.8453C117.116 11.8453 105.19 16.2648 95.4513 23.2507C85.7166 30.2337 78.0697 39.8526 75.7677 50.3392L77.2328 50.6608Z" fill="#B93160"/>
</svg>
