<svg width="71" height="71" viewBox="0 0 71 71" fill="none" xmlns="http://www.w3.org/2000/svg">
<path d="M35.7773 46.6631C35.7773 46.9682 36.0131 47.2178 36.2974 47.2178H49.1245C49.4088 47.2178 49.6445 46.9682 49.6445 46.6631V43.335C49.6445 43.0299 49.4088 42.7803 49.1245 42.7803H36.2974C36.0131 42.7803 35.7773 43.0299 35.7773 43.335V46.6631ZM22.2638 47.086L35.5763 35.9229C35.8397 35.7011 35.8397 35.292 35.5763 35.0701L22.2638 23.914C22.1834 23.8456 22.0851 23.8018 21.9806 23.7876C21.876 23.7735 21.7696 23.7896 21.674 23.8342C21.5784 23.8787 21.4975 23.9498 21.4411 24.0389C21.3846 24.128 21.3549 24.2314 21.3555 24.3369V28.6843C21.3555 28.8507 21.4248 29.0032 21.5565 29.1072L29.1696 35.5L21.5565 41.8928C21.4946 41.9447 21.4445 42.0093 21.4098 42.0823C21.3751 42.1553 21.3566 42.2349 21.3555 42.3157V46.6631C21.3555 47.1346 21.9032 47.3911 22.2638 47.086ZM61.0156 7.76562H9.98438C8.75713 7.76562 7.76562 8.75713 7.76562 9.98438V61.0156C7.76562 62.2429 8.75713 63.2344 9.98438 63.2344H61.0156C62.2429 63.2344 63.2344 62.2429 63.2344 61.0156V9.98438C63.2344 8.75713 62.2429 7.76562 61.0156 7.76562ZM58.2422 58.2422H12.7578V12.7578H58.2422V58.2422Z" fill="#F8F8F8"/>
</svg>
