<svg width="199" height="176" viewBox="0 0 199 176" fill="none" xmlns="http://www.w3.org/2000/svg">
<path d="M79.3259 72.3471C79.5552 72.692 80.0208 72.7858 80.3657 72.5564L85.9869 68.8195C86.3318 68.5901 86.4255 68.1246 86.1962 67.7797C85.9669 67.4347 85.5014 67.341 85.1564 67.5703L80.1599 70.8921L76.8381 65.8955C76.6088 65.5506 76.1432 65.4568 75.7983 65.6862C75.4533 65.9155 75.3596 66.381 75.5889 66.7259L79.3259 72.3471ZM30.7542 2.39528C40.542 5.53061 54.7269 12.782 65.424 24.3128C76.1002 35.8209 83.2861 51.5648 79.2153 71.7838L80.6857 72.0799C84.8712 51.2916 77.4547 35.0754 66.5237 23.2926C55.6137 11.5324 41.1866 4.16203 31.2118 0.966781L30.7542 2.39528Z" fill="#B93160"/>
<path d="M49.1332 86.8104C47.5835 87.2875 46.412 87.5258 45.6187 87.5253C44.8254 87.5248 44.2989 87.3535 44.0392 87.0113C43.7976 86.6796 43.7646 86.2157 43.9401 85.6194C44.1259 85.0051 44.4218 84.3461 44.8277 83.6422C45.192 83.0105 45.602 82.5496 46.058 82.2594C46.5139 81.9692 46.972 81.8004 47.4321 81.7531C47.8923 81.7059 48.3223 81.7734 48.7221 81.9559C49.1323 82.1203 49.4686 82.3503 49.731 82.6459C50.0038 82.9235 50.1861 83.233 50.2778 83.5745C50.3334 83.8951 50.3012 84.2012 50.1811 84.4927L53.5062 78.7265C53.5583 78.6363 53.6541 78.5953 53.7936 78.6036C53.9615 78.6043 54.1281 78.6282 54.2933 78.6753C54.4585 78.7225 54.5952 78.7773 54.7035 78.8397C54.8403 78.8945 54.9267 78.9323 54.9628 78.9532L51.6657 84.4831C52.4028 84.3309 53.066 84.2444 53.6552 84.2234C54.2445 84.2025 54.7237 84.2263 55.093 84.295C55.4622 84.3636 55.6982 84.4756 55.801 84.6311C55.9037 84.7865 55.8281 84.9594 55.5741 85.1496C55.3201 85.3398 54.8659 85.5228 54.2114 85.6985C53.575 85.8847 52.6957 86.075 51.5734 86.2696C51.5089 86.2564 51.4378 86.2755 51.36 86.3269C51.2927 86.3602 51.1668 86.5161 50.9822 86.7944C50.8081 87.0547 50.535 87.4865 50.1631 88.0897C49.8197 88.6853 49.3202 89.5516 48.6645 90.6886C48.5604 90.869 48.3908 90.9756 48.1555 91.0083C47.9306 91.0229 47.7033 91 47.4736 90.9397C47.2542 90.8613 47.0789 90.7482 46.9477 90.6004C46.8165 90.4526 46.8068 90.3027 46.9185 90.1507L49.1332 86.8104ZM48.0476 82.9378C47.6686 82.7192 47.2706 82.7422 46.8535 83.0067C46.4649 83.2636 46.1225 83.6072 45.8262 84.0376C45.548 84.4784 45.3395 84.9233 45.2008 85.3724C45.0905 85.8139 45.1152 86.1047 45.2749 86.2448C45.1736 86.3788 45.1979 86.4409 45.3478 86.4312C45.5261 86.4138 45.7576 86.3669 46.0421 86.2905C46.3447 86.2245 46.681 86.1418 47.0509 86.0425C47.4312 85.9251 47.7741 85.8102 48.0794 85.6977C48.4133 85.5776 48.6902 85.4727 48.9102 85.3831C49.1406 85.2755 49.252 85.2075 49.2443 85.179C49.0602 84.0387 48.6613 83.2916 48.0476 82.9378ZM65.9338 99.2761C66.2668 98.6986 66.7736 97.9447 67.4543 97.0145C68.1531 96.0948 68.9476 95.134 69.8378 94.1323C70.7462 93.141 71.7138 92.1719 72.7408 91.225C73.7783 90.26 74.8112 89.4488 75.8397 88.7913C76.8862 88.1443 77.897 87.7051 78.8721 87.4737C79.8652 87.2528 80.7498 87.3661 81.5259 87.8136C81.9771 88.0738 82.3092 88.3736 82.5224 88.7129C82.7536 89.0627 82.8852 89.4392 82.9172 89.8424C82.9777 90.238 82.9489 90.6423 82.831 91.0553C82.7416 91.4607 82.5772 91.8709 82.3378 92.286C82.0129 92.0987 81.7981 91.8665 81.6932 91.5896C81.5988 91.2947 81.5276 91.0011 81.4796 90.7089C81.4317 90.4167 81.3643 90.1374 81.2775 89.8709C81.2191 89.5967 81.0456 89.3764 80.7568 89.2099C80.1793 88.8769 79.4856 88.8496 78.6756 89.1281C77.8761 89.3885 77.0333 89.8284 76.1471 90.4477C75.2609 91.0669 74.3626 91.8115 73.4522 92.6813C72.5522 93.5331 71.7077 94.3929 70.9187 95.2606C70.1582 96.1207 69.4896 96.9256 68.913 97.6753C68.3468 98.407 67.9492 98.9713 67.7203 99.3684C67.4185 99.8918 67.1489 100.422 66.9117 100.958C66.6848 101.477 66.5472 101.987 66.4987 102.488C66.4502 102.989 66.5246 103.465 66.7218 103.915C66.9294 104.347 67.349 104.746 67.9807 105.11C68.7026 105.526 69.5508 105.703 70.5252 105.639C71.5177 105.586 72.5133 105.403 73.512 105.089C74.5211 104.757 75.4698 104.342 76.3581 103.844C77.2568 103.328 77.9719 102.839 78.5035 102.376C78.55 102.379 78.6364 102.417 78.7627 102.489C78.8995 102.544 78.9859 102.582 79.022 102.603C79.2385 102.728 79.4215 102.869 79.5707 103.027C79.7484 103.178 79.754 103.398 79.5875 103.686C79.1462 104.202 78.5397 104.669 77.768 105.09C77.0067 105.493 76.1784 105.845 75.2831 106.146C74.3878 106.448 73.4644 106.673 72.5129 106.822C71.5614 106.97 70.6747 107.048 69.853 107.055C69.0312 107.062 68.3222 106.978 67.726 106.803C67.1193 106.645 66.7004 106.392 66.4692 106.042C65.8737 105.699 65.453 105.24 65.2071 104.665C64.9898 104.083 64.8862 103.47 64.8965 102.826C64.9248 102.193 65.0372 101.561 65.2334 100.928C65.4297 100.296 65.6632 99.7453 65.9338 99.2761ZM85.3622 112.752C85.1651 112.927 84.8129 113.121 84.3056 113.333C83.8267 113.538 83.2885 113.721 82.691 113.881C82.1038 114.024 81.5195 114.12 80.9379 114.169C80.3847 114.211 79.9547 114.143 79.6479 113.966C79.0704 113.633 78.7482 113.087 78.6814 112.327C78.6327 111.577 78.7536 110.721 79.0443 109.758C79.3349 108.795 79.7407 107.779 80.2617 106.709C80.7931 105.62 81.336 104.575 81.8904 103.571C82.4447 102.568 82.956 101.661 83.4244 100.849C83.8927 100.037 84.2195 99.4073 84.4047 98.961C84.581 98.8222 84.7336 98.7659 84.8627 98.7923C85.0099 98.829 85.1647 98.8942 85.3271 98.9879C85.4715 99.0712 85.5874 99.1621 85.6749 99.2606C85.7804 99.3695 85.8262 99.5403 85.8124 99.7728C85.6979 99.9713 85.5054 100.305 85.2348 100.774C84.9823 101.254 84.7023 101.802 84.395 102.418C84.0981 103.017 83.7803 103.651 83.4417 104.322C83.1136 104.974 82.792 105.594 82.477 106.182C82.1801 106.781 81.9054 107.32 81.6528 107.799C81.4287 108.271 81.2633 108.621 81.1564 108.848C81.1016 108.985 81 109.203 80.8515 109.502C80.7211 109.811 80.5893 110.144 80.4561 110.5C80.3514 110.849 80.2713 111.175 80.2158 111.48C80.1784 111.795 80.2357 112.008 80.3877 112.12C80.6585 112.276 80.9968 112.315 81.4028 112.237C81.8269 112.168 82.2783 112.032 82.7572 111.827C83.2361 111.622 83.7177 111.371 84.2021 111.073C84.6865 110.775 85.1334 110.48 85.5428 110.187C85.9807 109.886 86.3384 109.6 86.616 109.327C86.9116 109.064 87.1101 108.866 87.2114 108.732C87.4244 108.446 87.7103 108.034 88.069 107.495C88.4381 106.938 88.819 106.34 89.2117 105.701C89.6044 105.062 89.9673 104.453 90.3003 103.876C90.6514 103.309 90.9154 102.872 91.0923 102.565L92.5344 103.505C91.7095 104.977 90.9355 106.298 90.2126 107.469C89.5 108.621 88.851 109.726 88.2654 110.783C87.6902 111.822 87.1938 112.87 86.7762 113.928C86.3586 114.986 86.0375 116.148 85.8129 117.413C85.7275 117.436 85.5776 117.446 85.3631 117.442C85.1383 117.457 84.9897 117.443 84.9176 117.402C84.4664 117.142 84.248 116.811 84.2625 116.411C84.2846 116.039 84.3831 115.639 84.5579 115.21C84.7612 114.774 84.9593 114.348 85.1521 113.93C85.3734 113.504 85.4435 113.112 85.3622 112.752ZM83.3981 125.291C84.6894 123.511 85.8384 121.769 86.8452 120.064C87.8595 118.389 88.8184 116.705 89.7217 115.014C90.6431 113.332 91.5478 111.617 92.4358 109.869C93.3238 108.12 94.3052 106.293 95.3799 104.388C95.5798 104.167 95.7522 104.014 95.8972 103.929C96.0707 103.836 96.3171 103.93 96.6365 104.211C96.9634 104.52 97.0641 104.866 96.9386 105.251C96.8235 105.617 96.6282 105.998 96.3527 106.392C96.0772 106.786 95.7837 107.17 95.4722 107.544C95.1606 107.917 94.9681 108.251 94.8946 108.545C95.7115 108.463 96.5749 108.384 97.4848 108.307C98.3946 108.231 99.3004 108.224 100.202 108.287C101.114 108.332 101.996 108.492 102.847 108.766C103.71 109.023 104.473 109.451 105.137 110.051C105.951 110.808 106.413 111.508 106.524 112.149C106.664 112.783 106.527 113.353 106.114 113.861C105.73 114.361 105.129 114.82 104.311 115.237C103.503 115.637 102.59 115.989 101.574 116.293C100.557 116.596 99.4732 116.849 98.3225 117.051C97.1718 117.253 96.0652 117.421 95.0026 117.554C93.9504 117.668 92.9798 117.746 92.0907 117.786C91.2197 117.837 90.5374 117.853 90.044 117.833C89.901 118.039 89.6762 118.366 89.3695 118.815C89.0913 119.255 88.7676 119.754 88.3985 120.311C88.0474 120.878 87.6717 121.467 87.2714 122.078C86.8891 122.699 86.5134 123.288 86.1442 123.845C85.7932 124.412 85.4695 124.911 85.1732 125.341C84.895 125.782 84.6934 126.11 84.5685 126.327C84.522 126.324 84.4485 126.306 84.3478 126.272C84.2472 126.238 84.1337 126.185 84.0073 126.112C83.8706 126.057 83.7481 125.998 83.6398 125.936C83.5211 125.891 83.4489 125.85 83.4232 125.811C83.3691 125.78 83.3462 125.694 83.3545 125.555C83.3524 125.433 83.3669 125.346 83.3981 125.291ZM93.4689 111.33C93.269 111.552 93.0688 111.857 92.8683 112.247C92.6963 112.628 92.5086 113.037 92.3054 113.473C92.1305 113.901 91.9609 114.321 91.7965 114.731C91.6321 115.141 91.4809 115.487 91.3428 115.768C92.3304 115.64 93.4315 115.566 94.6461 115.545C95.8788 115.534 97.1014 115.457 98.3139 115.315C99.5444 115.183 100.717 114.921 101.833 114.53C102.948 114.139 103.895 113.519 104.673 112.669C104.964 112.332 105.074 112.058 105.002 111.849C104.959 111.631 104.791 111.402 104.497 111.161C103.895 110.621 103.078 110.222 102.048 109.965C101.029 109.69 99.9684 109.547 98.8676 109.538C97.7848 109.539 96.7493 109.687 95.7611 109.983C94.7728 110.279 94.0087 110.728 93.4689 111.33ZM104.386 119.61C104.815 118.992 105.275 118.319 105.766 117.592C106.268 116.847 106.792 116.127 107.337 115.432C107.9 114.746 108.47 114.113 109.046 113.531C109.64 112.96 110.241 112.501 110.85 112.155C111.487 111.8 112.129 111.605 112.775 111.569C113.431 111.515 114.088 111.689 114.746 112.092C115.197 112.352 115.431 112.74 115.447 113.254C115.481 113.779 115.387 114.338 115.165 114.931C114.961 115.535 114.692 116.126 114.359 116.703C114.055 117.273 113.798 117.739 113.59 118.1C113.229 117.891 113.02 117.566 112.962 117.124C112.915 116.664 112.948 116.19 113.061 115.702C113.174 115.214 113.318 114.756 113.493 114.328L113.864 113.496C113.846 113.485 113.81 113.465 113.756 113.433C113.73 113.395 113.708 113.37 113.69 113.36C113.384 113.183 112.996 113.188 112.527 113.374C112.077 113.572 111.578 113.873 111.032 114.279C110.513 114.678 109.98 115.164 109.433 115.738C108.896 116.294 108.391 116.857 107.918 117.426C107.446 117.995 107.017 118.53 106.633 119.03C106.277 119.522 106.016 119.912 105.849 120.201C105.543 120.65 105.246 121.164 104.959 121.744C104.673 122.324 104.479 122.91 104.379 123.502C104.278 124.093 104.286 124.663 104.403 125.211C104.53 125.741 104.828 126.226 105.297 126.664C105.964 127.049 106.558 127.271 107.077 127.33C107.596 127.389 108.071 127.338 108.5 127.177C108.948 127.026 109.353 126.803 109.716 126.507C110.079 126.211 110.438 125.901 110.793 125.577C111.177 125.245 111.556 124.923 111.929 124.609C112.302 124.295 112.723 124.045 113.192 123.858C113.44 123.929 113.588 124.026 113.636 124.15C113.713 124.267 113.739 124.39 113.712 124.519C113.686 124.648 113.631 124.785 113.548 124.929L113.376 125.227C112.939 125.985 112.391 126.643 111.733 127.201C111.074 127.759 110.34 128.178 109.53 128.456C108.731 128.717 107.889 128.821 107.006 128.768C106.15 128.708 105.29 128.428 104.423 127.928C103.702 127.512 103.227 126.938 103 126.206C102.801 125.466 102.754 124.693 102.858 123.887C102.98 123.092 103.19 122.311 103.487 121.545C103.795 120.76 104.095 120.115 104.386 119.61ZM119.719 135.81C119.899 135.289 120.14 134.683 120.443 133.991C120.774 133.293 121.096 132.588 121.409 131.879C121.732 131.151 122.011 130.459 122.246 129.801C122.499 129.153 122.636 128.583 122.656 128.089C120.653 129.435 118.988 130.447 117.659 131.124C116.342 131.783 115.277 132.191 114.465 132.348C113.681 132.497 113.114 132.459 112.763 132.233C112.413 132.006 112.209 131.672 112.151 131.23C112.093 130.788 112.146 130.301 112.308 129.769C112.499 129.23 112.696 128.743 112.899 128.307C113.128 127.91 113.541 127.402 114.138 126.784C114.734 126.166 115.431 125.522 116.227 124.851C117.033 124.161 117.899 123.494 118.824 122.849C119.767 122.214 120.69 121.677 121.594 121.236C122.497 120.795 123.346 120.491 124.14 120.323C124.934 120.156 125.593 120.223 126.116 120.525C126.965 120.846 127.435 121.345 127.525 122.023C127.644 122.692 127.274 123.501 126.415 124.449C125.728 125.64 125.185 126.686 124.786 127.586C124.405 128.497 124.045 129.371 123.706 130.21C123.385 131.058 123.025 131.933 122.626 132.833C122.245 133.744 121.711 134.795 121.024 135.986C120.899 136.203 120.763 136.377 120.615 136.508C120.496 136.631 120.238 136.579 119.841 136.35C119.786 136.318 119.74 136.232 119.702 136.089C119.682 135.958 119.687 135.865 119.719 135.81ZM125.235 122.866C125.203 122.463 124.948 122.28 124.47 122.317C123.991 122.354 123.407 122.534 122.715 122.857C122.024 123.179 121.261 123.605 120.427 124.134C119.593 124.664 118.781 125.217 117.99 125.795C117.2 126.374 116.476 126.942 115.817 127.5C115.169 128.04 114.67 128.51 114.319 128.909C113.945 129.559 113.83 129.986 113.977 130.191C114.134 130.377 114.44 130.41 114.895 130.287C115.35 130.165 115.915 129.937 116.588 129.604C117.279 129.281 117.973 128.912 118.67 128.496C119.385 128.09 120.062 127.687 120.702 127.287C121.36 126.897 121.883 126.573 122.272 126.316C122.653 126.031 122.982 125.752 123.259 125.479C123.537 125.206 123.786 124.941 124.007 124.683C124.256 124.418 124.469 124.132 124.646 123.825C124.841 123.529 125.037 123.209 125.235 122.866ZM134.55 117.597C135.138 117.454 135.519 117.482 135.694 117.679C135.887 117.886 135.918 118.229 135.786 118.706C135.655 119.184 135.406 119.762 135.039 120.44C134.672 121.118 134.226 121.871 133.701 122.698C133.204 123.518 132.649 124.376 132.036 125.273C131.433 126.152 130.844 127.027 130.27 127.898C129.705 128.751 129.18 129.579 128.694 130.38C128.207 131.182 127.829 131.902 127.557 132.539L127.639 132.586C127.675 132.606 127.707 132.613 127.735 132.605C129.215 132.208 130.627 131.699 131.97 131.079C133.314 130.459 134.549 129.861 135.675 129.284C136.812 128.689 137.804 128.178 138.65 127.753C139.515 127.337 140.219 127.118 140.761 127.094C141.032 127.25 141.232 127.426 141.36 127.62C141.507 127.825 141.486 128.089 141.299 128.414C141.278 128.45 141.233 128.508 141.163 128.588C141.121 128.66 141.09 128.714 141.069 128.751C140.087 129.411 139.055 130.054 137.972 130.68C136.9 131.289 135.798 131.844 134.667 132.346C133.536 132.848 132.376 133.273 131.189 133.623C130.02 133.983 128.829 134.234 127.616 134.376C127.606 134.394 127.576 134.425 127.527 134.469C127.506 134.505 127.49 134.532 127.48 134.55C127.376 134.731 127.406 135.012 127.569 135.395C127.751 135.789 128.011 136.215 128.347 136.674C128.702 137.143 129.102 137.638 129.547 138.159C130.01 138.691 130.471 139.185 130.929 139.641C131.405 140.108 131.852 140.522 132.269 140.883C132.704 141.254 133.057 141.518 133.328 141.674C133.286 141.746 133.208 141.882 133.094 142.08C132.997 142.289 132.869 142.492 132.708 142.687C132.547 142.883 132.369 143.045 132.175 143.174C131.991 143.284 131.8 143.282 131.601 143.167L131.493 143.105C131.457 143.084 131.435 143.06 131.427 143.031L125.48 135.453C124.848 136.508 124.276 137.332 123.765 137.927C123.264 138.504 122.835 138.894 122.477 139.097C122.127 139.328 121.858 139.377 121.67 139.245C121.5 139.122 121.421 138.884 121.433 138.53L134.55 117.597ZM137.818 139.393C137.717 139.359 137.566 139.308 137.365 139.24C137.163 139.172 136.969 139.072 136.781 138.94C136.593 138.807 136.452 138.654 136.36 138.481C136.25 138.297 136.257 138.096 136.382 137.88C136.455 137.753 136.534 137.679 136.619 137.656C136.704 137.633 136.841 137.604 137.03 137.568C137.615 137.472 138.188 137.25 138.75 136.901C139.341 136.544 139.92 136.144 140.487 135.702C141.065 135.242 141.647 134.796 142.233 134.364C142.847 133.924 143.461 133.569 144.074 133.297C144.688 133.026 145.331 132.892 146.002 132.894C146.674 132.897 147.375 133.12 148.105 133.565C148.411 133.742 148.713 134.012 149.008 134.375C149.304 134.738 149.542 135.139 149.721 135.579C149.91 136.001 150.014 136.446 150.033 136.914C150.052 137.382 149.942 137.823 149.703 138.238C149.709 138.435 149.5 138.59 149.073 138.705C148.664 138.83 148.14 138.925 147.502 138.989C146.874 139.036 146.172 139.064 145.397 139.074C144.65 139.076 143.932 139.071 143.242 139.058C142.552 139.045 141.946 139.032 141.424 139.02C140.902 139.007 140.547 139.019 140.358 139.054C140.164 139.183 139.972 139.349 139.782 139.552C139.593 139.756 139.418 139.955 139.257 140.151C139.124 140.339 138.997 140.518 138.875 140.688C138.781 140.851 138.708 140.977 138.656 141.067C138.458 141.41 138.222 141.779 137.946 142.173C137.689 142.578 137.478 142.985 137.314 143.395C137.178 143.798 137.154 144.193 137.243 144.581C137.342 144.951 137.672 145.297 138.231 145.62C138.827 145.963 139.47 146.142 140.159 146.155C140.86 146.15 141.56 146.061 142.261 145.888C142.962 145.715 143.639 145.48 144.291 145.182C144.962 144.896 145.566 144.619 146.105 144.352C146.672 144.078 147.156 143.864 147.557 143.711C147.958 143.557 148.24 143.527 148.402 143.621C148.583 143.725 148.751 143.87 148.908 144.057C149.094 144.236 149.119 144.443 148.983 144.678C148.796 145.002 148.437 145.312 147.906 145.608C147.393 145.913 146.775 146.194 146.05 146.449C145.343 146.715 144.565 146.939 143.714 147.122C142.891 147.297 142.086 147.422 141.298 147.496C140.52 147.553 139.787 147.551 139.1 147.492C138.423 147.414 137.877 147.256 137.462 147.016C136.65 146.548 136.151 145.995 135.965 145.359C135.779 144.723 135.767 144.055 135.93 143.355C136.111 142.666 136.385 141.982 136.752 141.304C137.147 140.618 137.503 139.981 137.818 139.393ZM147.014 134.956C146.707 134.779 146.294 134.745 145.774 134.855C145.264 134.946 144.731 135.119 144.175 135.375C143.647 135.624 143.153 135.917 142.695 136.253C142.264 136.582 141.966 136.891 141.799 137.18C142.07 137.336 142.515 137.461 143.135 137.554C143.783 137.639 144.449 137.674 145.131 137.658C145.813 137.643 146.443 137.573 147.019 137.449C147.596 137.324 147.973 137.109 148.15 136.802C148.244 136.64 148.259 136.468 148.195 136.287C148.131 136.105 148.029 135.927 147.891 135.751C147.77 135.585 147.629 135.432 147.47 135.291C147.31 135.151 147.158 135.04 147.014 134.956ZM148.838 152.999C148.828 153.017 149.08 153.018 149.594 153.002C150.126 152.996 150.764 152.955 151.506 152.878C152.276 152.793 153.071 152.686 153.891 152.558C154.721 152.411 155.436 152.234 156.036 152.027C156.637 151.82 157.029 151.578 157.214 151.299C157.427 151.013 157.297 150.674 156.826 150.282C156.228 149.817 155.673 149.509 155.159 149.357C154.663 149.216 154.194 149.113 153.749 149.049C153.305 148.985 152.884 148.923 152.486 148.862C152.107 148.811 151.738 148.659 151.38 148.404C150.586 147.946 150.176 147.385 150.15 146.721C150.152 146.049 150.398 145.289 150.887 144.441C151.377 143.593 152.029 142.899 152.845 142.359C153.672 141.802 154.544 141.415 155.462 141.199C156.381 140.983 157.321 140.936 158.285 141.059C159.259 141.164 160.152 141.45 160.964 141.918C161.289 142.106 161.553 142.294 161.756 142.484C161.959 142.673 161.957 142.948 161.749 143.309C161.603 143.562 161.354 143.743 161.003 143.853C160.661 143.944 160.355 143.912 160.084 143.756C160.066 143.746 160.026 143.711 159.965 143.651C159.913 143.573 159.867 143.486 159.826 143.391C159.785 143.295 159.734 143.217 159.672 143.158C159.621 143.08 159.586 143.036 159.568 143.025C159.084 142.53 158.478 142.288 157.749 142.301C157.02 142.314 156.278 142.475 155.522 142.785C154.795 143.087 154.117 143.49 153.49 143.994C152.873 144.48 152.419 144.975 152.128 145.481C152.013 145.679 151.956 145.862 151.955 146.03C151.983 146.191 152.044 146.334 152.139 146.461C152.252 146.599 152.385 146.723 152.537 146.835C152.718 146.939 152.898 147.043 153.078 147.147C153.439 147.355 153.832 147.509 154.255 147.609C154.696 147.72 155.13 147.801 155.556 147.855C156.001 147.918 156.434 148 156.858 148.1C157.299 148.21 157.719 148.38 158.116 148.609C158.296 148.713 158.463 148.882 158.617 149.115C158.782 149.33 158.897 149.589 158.963 149.891C159.04 150.176 159.068 150.481 159.049 150.807C159.04 151.114 158.961 151.417 158.813 151.716C158.775 152.032 158.547 152.345 158.127 152.656C157.725 152.977 157.217 153.274 156.604 153.545C155.99 153.817 155.3 154.056 154.531 154.262C153.773 154.45 153.036 154.602 152.32 154.718C151.614 154.816 150.959 154.847 150.354 154.811C149.74 154.793 149.275 154.682 148.96 154.476C148.599 154.268 148.445 154.035 148.498 153.777C148.569 153.529 148.682 153.27 148.838 152.999ZM164.007 144.647C164.965 142.987 165.948 141.366 166.957 139.783C167.976 138.182 169.039 136.547 170.147 134.877C170.284 134.763 170.399 134.71 170.492 134.715C170.596 134.703 170.711 134.733 170.837 134.806C171.017 134.91 171.113 135.037 171.122 135.187C171.142 135.319 171.125 135.453 171.07 135.59C171.034 135.737 170.959 135.886 170.848 136.038C170.764 136.183 170.691 136.309 170.629 136.417L165.852 144.701C165.665 145.026 165.494 145.385 165.34 145.777L164.878 146.953C164.742 147.356 164.59 147.725 164.42 148.06C164.279 148.388 164.111 148.639 163.913 148.814C163.763 148.992 163.556 149.101 163.292 149.141C163.046 149.192 162.824 149.16 162.626 149.045C162.301 148.858 162.169 148.565 162.23 148.168C162.291 147.77 162.428 147.344 162.642 146.89C162.874 146.447 163.123 146.014 163.391 145.591C163.677 145.179 163.882 144.864 164.007 144.647ZM158.454 158.219L158.704 157.786C158.756 157.696 158.817 157.611 158.887 157.531C158.967 157.433 159.055 157.364 159.151 157.323C159.247 157.282 159.349 157.292 159.457 157.355C159.818 157.563 159.974 157.773 159.924 157.985C159.902 158.189 159.824 158.408 159.689 158.643C159.543 158.895 159.387 159.082 159.221 159.203C159.073 159.334 158.819 159.296 158.458 159.087C158.35 159.025 158.289 158.942 158.277 158.839C158.264 158.735 158.275 158.633 158.309 158.533C158.354 158.414 158.402 158.309 158.454 158.219Z" fill="#B93160"/>
</svg>
