<svg width="76" height="76" viewBox="0 0 76 76" fill="none" xmlns="http://www.w3.org/2000/svg">
<g clip-path="url(#clip0_13_35)">
<path d="M17.75 34.3364V53.25H36.6636L32.7192 49.3056H21.6944V38.2808L17.75 34.3364Z" fill="#F8F8F8"/>
<path d="M68.7714 63.6831L63.1111 57.9439V63.1111H7.88889V54.9264H11.8333V51.7708H7.88889V38.6556H11.8333V35.5H7.88889V22.8778H11.8333V19.7222H7.88889V8.6975L39.3261 39.9572V34.3956L7.31695 2.54417C7.04109 2.26603 6.68865 2.07634 6.30457 1.99928C5.92048 1.92223 5.52215 1.9613 5.16036 2.11152C4.79856 2.26174 4.4897 2.5163 4.27315 2.84274C4.0566 3.16918 3.94217 3.55271 3.94445 3.94445V65.0833C3.94445 65.6064 4.15223 66.108 4.5221 66.4779C4.89196 66.8478 5.3936 67.0556 5.91667 67.0556H67.3711C67.7628 67.0578 68.1464 66.9434 68.4728 66.7269C68.7993 66.5103 69.0538 66.2014 69.204 65.8396C69.3543 65.4779 69.3933 65.0795 69.3163 64.6954C69.2392 64.3113 69.0495 63.9589 68.7714 63.6831Z" fill="#F8F8F8"/>
<path d="M47.3333 59.1667H55.2222C56.2684 59.1667 57.2716 58.7511 58.0114 58.0114C58.7511 57.2716 59.1667 56.2684 59.1667 55.2222V17.1583L54.6306 8.81584C54.2797 8.20804 53.7731 7.70484 53.1629 7.35815C52.5528 7.01147 51.8612 6.83385 51.1594 6.84361C50.4418 6.84931 49.7394 7.05066 49.1277 7.42599C48.5161 7.80132 48.0184 8.33641 47.6883 8.97361L43.3889 17.1978V55.2222C43.3889 56.2684 43.8045 57.2716 44.5442 58.0114C45.2839 58.7511 46.2872 59.1667 47.3333 59.1667ZM47.3333 18.1444L51.1594 10.7092L55.2222 18.1642V47.3333H47.3333V18.1444ZM47.3333 50.5481H55.2222V55.3603H47.3333V50.5481Z" fill="#F8F8F8"/>
</g>
<defs>
<clipPath id="clip0_13_35">
<rect width="71" height="71" fill="white"/>
</clipPath>
</defs>
</svg>
