<svg width="46" height="37" viewBox="0 0 46 37" fill="none" xmlns="http://www.w3.org/2000/svg">
<path d="M0.891945 14.5609C0.649462 14.8968 0.725126 15.3656 1.06095 15.6081L6.53344 19.5595C6.86926 19.802 7.33807 19.7264 7.58055 19.3905C7.82303 19.0547 7.74737 18.5859 7.41155 18.3434L2.54711 14.831L6.05955 9.96656C6.30203 9.63074 6.22637 9.16193 5.89055 8.91945C5.55473 8.67697 5.08592 8.75263 4.84344 9.08845L0.891945 14.5609ZM37.2978 36.2634C37.4432 36.6512 37.8755 36.8477 38.2634 36.7023L44.5836 34.3322C44.9714 34.1867 45.1679 33.7544 45.0225 33.3666C44.877 32.9787 44.4447 32.7822 44.0569 32.9277L38.4389 35.0344L36.3322 29.4164C36.1867 29.0286 35.7544 28.8321 35.3666 28.9775C34.9787 29.123 34.7822 29.5553 34.9277 29.9431L37.2978 36.2634ZM24.8044 0.0704278C22.4299 4.81953 14.1591 12.1972 1.3805 14.2596L1.6195 15.7404C14.7914 13.6145 23.5206 5.99215 26.1461 0.741248L24.8044 0.0704278ZM43.75 3.66639e-09C43.75 11.9518 42.2537 24.8293 37.3172 35.6897L38.6828 36.3104C43.7463 25.1707 45.25 12.0482 45.25 -3.66639e-09L43.75 3.66639e-09Z" fill="#B93160"/>
</svg>
