<svg width="71" height="71" viewBox="0 0 71 71" fill="none" xmlns="http://www.w3.org/2000/svg">
<path d="M24.4062 6.65625V15.5312H28.8438V6.65625H24.4062ZM33.2812 8.875V15.5312H37.7188V8.875H33.2812ZM10.8164 17.75L11.0938 20.1773L15.1163 58.3797C15.4713 61.7523 18.3823 64.3438 21.7726 64.3438H42.5712C45.9614 64.3438 48.8724 61.7523 49.2274 58.3797L50.2702 48.8125H55.4688C59.1186 48.8125 62.125 45.8061 62.125 42.1562V35.5C62.125 31.8502 59.1186 28.8438 55.4688 28.8438H52.3492L53.25 20.1773L53.5273 17.75H10.8164ZM15.8086 22.1875H48.5352L44.7899 57.8961C44.7378 58.4477 44.4813 58.9598 44.0707 59.3318C43.6601 59.7038 43.1252 59.9087 42.5712 59.9062H21.7726C20.6211 59.9062 19.6759 59.0476 19.5538 57.8961L15.8086 22.1875ZM51.8633 33.2812H55.4688C56.7246 33.2812 57.6875 34.2442 57.6875 35.5V42.1562C57.6875 43.4121 56.7246 44.375 55.4688 44.375H50.6851L51.8633 33.2812Z" fill="#F8F8F8"/>
</svg>
