<svg width="265" height="178" viewBox="0 0 265 178" fill="none" xmlns="http://www.w3.org/2000/svg">
<path d="M103.079 115.524C102.816 115.204 102.343 115.158 102.024 115.421L96.8106 119.709C96.4907 119.972 96.4447 120.445 96.7078 120.765C96.971 121.084 97.4436 121.13 97.7635 120.867L102.397 117.056L106.209 121.689C106.472 122.009 106.945 122.055 107.265 121.792C107.584 121.529 107.63 121.056 107.367 120.736L103.079 115.524ZM0.674394 165.676C21.5804 175.751 45.7994 177.662 65.5251 169.885C85.2957 162.091 100.47 144.594 103.246 116.073L101.754 115.927C99.0299 143.906 84.2043 160.909 64.9749 168.49C45.7006 176.088 21.9196 174.249 1.32561 164.324L0.674394 165.676Z" fill="#B93160"/>
<path d="M36.0412 109.472C35.2778 110.902 34.6144 111.897 34.0511 112.456C33.4878 113.014 32.9935 113.264 32.5682 113.204C32.1631 113.139 31.8127 112.833 31.5171 112.286C31.2161 111.719 30.9617 111.043 30.7537 110.258C30.5671 109.553 30.5333 108.937 30.6523 108.41C30.7714 107.882 30.9775 107.44 31.2707 107.082C31.5639 106.724 31.9166 106.469 32.3289 106.317C32.7358 106.145 33.1365 106.071 33.531 106.096C33.9202 106.1 34.2676 106.192 34.5733 106.369C34.8386 106.558 35.0315 106.798 35.1517 107.089L33.4481 100.654C33.4214 100.554 33.4605 100.457 33.5654 100.365C33.685 100.247 33.8201 100.146 33.9705 100.064C34.121 99.9806 34.2566 99.9231 34.3774 99.8911C34.5131 99.8337 34.601 99.7996 34.6413 99.7889L36.1983 106.036C36.6141 105.409 37.0237 104.88 37.4271 104.45C37.8304 104.02 38.1873 103.699 38.4977 103.488C38.8081 103.276 39.0545 103.189 39.2369 103.227C39.4194 103.265 39.4875 103.441 39.4413 103.755C39.3951 104.069 39.2017 104.519 38.8612 105.105C38.5407 105.685 38.0509 106.44 37.3917 107.369C37.3366 107.405 37.2996 107.469 37.2806 107.56C37.2563 107.631 37.2768 107.83 37.342 108.158C37.4018 108.465 37.5123 108.964 37.6735 109.654C37.8494 110.319 38.1054 111.285 38.4413 112.554C38.4946 112.755 38.4493 112.951 38.3054 113.14C38.1561 113.308 37.9787 113.452 37.7732 113.571C37.5623 113.67 37.3582 113.714 37.161 113.701C36.9637 113.689 36.8512 113.589 36.8233 113.403L36.0412 109.472ZM32.5422 107.489C32.1192 107.601 31.853 107.898 31.7434 108.379C31.6487 108.835 31.6478 109.321 31.7408 109.835C31.854 110.343 32.0196 110.806 32.2376 111.222C32.4704 111.613 32.6928 111.802 32.9049 111.789C32.9274 111.956 32.9884 111.983 33.0879 111.87C33.2023 111.732 33.3335 111.536 33.4815 111.281C33.6497 111.021 33.8301 110.725 34.0226 110.394C34.2097 110.043 34.372 109.72 34.5094 109.425C34.6617 109.104 34.7843 108.835 34.8772 108.616C34.9649 108.378 34.996 108.251 34.9705 108.236C34.0364 107.557 33.2269 107.308 32.5422 107.489ZM53.6819 93.1961C53.4408 92.9366 53.2607 92.7041 53.1416 92.4986C53.0226 92.2931 52.923 92.0392 52.843 91.7372C52.8164 91.6365 52.7897 91.5358 52.7631 91.4351C52.7565 91.329 52.7628 91.2304 52.7817 91.1392C52.8208 91.0426 52.8854 90.9609 52.9754 90.8939C53.0856 90.8217 53.2393 90.7918 53.4365 90.8042C53.568 90.8125 53.7102 90.861 53.863 90.9499C54.0105 91.0186 54.1586 91.1302 54.3073 91.2848C54.4708 91.4139 54.6041 91.5511 54.7071 91.6962C54.8304 91.836 54.9254 91.9509 54.9924 92.0409C55.3596 91.5558 55.7671 91.06 56.2149 90.5535C56.6574 90.0269 57.1433 89.5426 57.6729 89.1007C58.2172 88.6333 58.7776 88.2263 59.3539 87.8798C59.9504 87.5279 60.5406 87.2746 61.1247 87.12C61.3261 87.0667 61.5731 87.0228 61.8657 86.9885C62.1583 86.9541 62.4388 86.9553 62.7071 86.992C62.9956 87.0233 63.2444 87.1083 63.4535 87.2469C63.6774 87.3601 63.824 87.5475 63.8933 87.8093C64.0817 88.2767 64.1519 88.7861 64.104 89.3376C64.0708 89.8636 63.9645 90.3982 63.7851 90.9414C63.6258 91.4792 63.4134 92.0203 63.1481 92.5647C62.9029 93.1038 62.6423 93.6253 62.3663 94.1294C62.1104 94.6282 61.8667 95.0914 61.6351 95.5191C61.4237 95.9415 61.272 96.3049 61.1802 96.6093C61.862 95.847 62.6441 95.2196 63.5267 94.7273C64.4241 94.2096 65.3561 93.8227 66.3228 93.5668C66.6249 93.4868 66.9525 93.4216 67.3055 93.3713C67.6733 93.2954 68.0243 93.2779 68.3584 93.3188C68.6925 93.3596 68.9895 93.4642 69.2496 93.6324C69.5096 93.8006 69.693 94.0861 69.7996 94.4889C69.9063 94.8917 69.8642 95.5062 69.6735 96.3326C69.4977 97.1334 69.2223 98.0468 68.8474 99.0728C68.4873 100.073 68.062 101.113 67.5716 102.191C67.096 103.243 66.6219 104.22 66.1493 105.121C65.6713 106.002 65.2217 106.746 64.8006 107.353C64.3943 107.935 64.0804 108.255 63.8588 108.314L62.9774 108.159C62.9768 107.75 63.1086 107.23 63.3727 106.6C63.6369 105.969 63.9662 105.3 64.3607 104.592C64.7753 103.879 65.2121 103.128 65.6711 102.338C66.1503 101.543 66.5945 100.779 67.0038 100.046C67.413 99.3125 67.7571 98.6179 68.0361 97.9622C68.3097 97.2863 68.4483 96.7108 68.4518 96.2358C68.4702 95.7353 68.3185 95.3659 67.9969 95.1278C67.6699 94.8696 67.1125 94.7585 66.3247 94.7947C65.5392 95.0027 64.7508 95.3623 63.9595 95.8735C63.1628 96.3646 62.4384 96.9659 61.7863 97.6773C61.1341 98.3887 60.5892 99.1796 60.1515 100.05C59.7286 100.894 59.4908 101.787 59.4382 102.728C59.5875 103.292 59.7744 103.835 59.9989 104.357C60.2436 104.874 60.4882 105.391 60.7329 105.909C60.9722 106.406 61.2042 106.915 61.4287 107.438C61.6734 107.955 61.8677 108.485 62.0116 109.029C62.1183 109.432 62.1761 109.772 62.185 110.05C62.1939 110.328 61.9768 110.525 61.5337 110.643C61.4934 110.653 61.4229 110.672 61.3222 110.699C61.2364 110.7 61.1907 110.69 61.1854 110.67L53.6819 93.1961ZM56.1191 94.5873C56.3164 95.3325 56.5774 96.1147 56.9021 96.9339C57.2214 97.7329 57.6254 98.4449 58.1141 99.0698C58.3469 98.728 58.6288 98.287 58.9599 97.7468C59.3058 97.1811 59.6538 96.5825 60.0038 95.951C60.374 95.3142 60.716 94.6526 61.0299 93.966C61.364 93.2741 61.653 92.6157 61.897 91.9908C62.1612 91.3605 62.3454 90.7945 62.4496 90.2928C62.5686 89.7656 62.5882 89.351 62.5082 89.0489C62.4442 88.8072 62.321 88.6674 62.1385 88.6295C61.9762 88.5863 61.7944 88.5913 61.593 88.6447C61.1096 88.7726 60.512 89.0386 59.8 89.4426C59.1082 89.8413 58.4578 90.3152 57.8489 90.8644C57.2601 91.4082 56.7833 92.0085 56.4185 92.6655C56.0483 93.3023 55.9485 93.9429 56.1191 94.5873ZM83.1945 104.423C82.9552 103.926 82.6993 103.325 82.4267 102.622C82.169 101.893 81.9013 101.166 81.6234 100.442C81.3402 99.6983 81.0502 99.01 80.7534 98.3774C80.4768 97.7394 80.1717 97.2383 79.8382 96.874C79.3656 99.2405 78.8966 101.132 78.4311 102.548C77.9602 103.944 77.4921 104.984 77.0265 105.668C76.5758 106.326 76.1463 106.698 75.7382 106.785C75.3301 106.871 74.9498 106.778 74.5973 106.505C74.2449 106.232 73.9389 105.85 73.6794 105.358C73.4348 104.841 73.231 104.356 73.0681 103.903C72.9508 103.46 72.8862 102.809 72.8743 101.95C72.8624 101.092 72.9023 100.144 72.9941 99.1063C73.0805 98.049 73.2247 96.9656 73.4266 95.8561C73.6487 94.7413 73.925 93.7092 74.2554 92.7596C74.5859 91.8101 74.9739 90.9962 75.4193 90.3179C75.8647 89.6396 76.3794 89.2232 76.9634 89.0686C77.7921 88.6983 78.4772 88.7217 79.0186 89.1387C79.5748 89.5302 79.882 90.3648 79.9401 91.6424C80.292 92.9716 80.6436 94.0962 80.9949 95.0161C81.3664 95.9306 81.7272 96.8049 82.0773 97.6389C82.4476 98.4676 82.8083 99.3419 83.1596 100.262C83.5311 101.176 83.8928 102.298 84.2447 103.627C84.3087 103.869 84.3345 104.089 84.322 104.286C84.3244 104.458 84.1041 104.602 83.661 104.719C83.6006 104.735 83.5067 104.706 83.3793 104.632C83.2721 104.553 83.2105 104.483 83.1945 104.423ZM77.988 91.3511C77.6812 91.0875 77.3711 91.1373 77.0578 91.5004C76.7444 91.8636 76.4563 92.4032 76.1933 93.1194C75.9303 93.8355 75.6893 94.6752 75.4702 95.6383C75.2511 96.6015 75.0648 97.5667 74.9115 98.534C74.7581 99.5013 74.6444 100.415 74.5704 101.275C74.4911 102.115 74.4677 102.8 74.5003 103.33C74.6923 104.055 74.9124 104.439 75.1606 104.481C75.4034 104.503 75.6433 104.31 75.8802 103.902C76.1171 103.495 76.357 102.936 76.5998 102.225C76.8628 101.509 77.095 100.758 77.2963 99.9715C77.5178 99.1802 77.7144 98.4169 77.8862 97.6818C78.0781 96.9414 78.2214 96.3431 78.3161 95.887C78.3854 95.4161 78.4224 94.986 78.4271 94.5968C78.4318 94.2077 78.4217 93.844 78.3968 93.5057C78.3868 93.142 78.3364 92.789 78.2457 92.4466C78.1752 92.0989 78.0893 91.7338 77.988 91.3511ZM80.8849 81.0477C81.2012 80.533 81.4909 80.2839 81.7539 80.3004C82.037 80.3117 82.3003 80.5329 82.5438 80.9641C82.7873 81.3953 83.0177 81.9809 83.2351 82.7207C83.4526 83.4605 83.6665 84.309 83.8768 85.2663C84.1019 86.198 84.3129 87.1982 84.5096 88.2667C84.7009 89.3152 84.8997 90.3509 85.1059 91.3738C85.3068 92.3767 85.5171 93.3339 85.7369 94.2455C85.9567 95.1571 86.1949 95.9345 86.4514 96.5778L86.542 96.5538C86.5823 96.5432 86.6099 96.5251 86.6247 96.4996C87.3946 95.1751 88.0379 93.8195 88.5543 92.4328C89.0708 91.0461 89.5253 89.7512 89.918 88.5481C90.3053 87.3249 90.6494 86.264 90.9503 85.3654C91.2713 84.4615 91.616 83.8099 91.9844 83.4106C92.2865 83.3306 92.5516 83.3143 92.7796 83.3617C93.0278 83.4037 93.1999 83.606 93.2959 83.9685C93.3065 84.0088 93.3151 84.082 93.3217 84.188C93.343 84.2685 93.359 84.329 93.3696 84.3692C93.1381 85.5297 92.8589 86.7135 92.532 87.9207C92.1997 89.1078 91.8091 90.278 91.3602 91.4313C90.9113 92.5846 90.3886 93.7036 89.7921 94.7882C89.2158 95.8674 88.5477 96.8848 87.7878 97.8403C87.7931 97.8605 87.7937 97.9034 87.7896 97.9692C87.8002 98.0094 87.8082 98.0396 87.8136 98.0598C87.8669 98.2612 88.0867 98.4401 88.4729 98.5964C88.8792 98.7474 89.3635 98.8671 89.9256 98.9553C90.5079 99.0382 91.1405 99.1078 91.8235 99.164C92.5266 99.2149 93.2016 99.2409 93.8484 99.2421C94.5154 99.2379 95.1241 99.2168 95.6743 99.1789C96.2448 99.1356 96.681 99.074 96.9831 98.994C97.0044 99.0746 97.0444 99.2256 97.1031 99.4472C97.1819 99.6634 97.2331 99.8976 97.2568 100.15C97.2805 100.402 97.2687 100.643 97.2213 100.871C97.1686 101.078 97.0315 101.212 96.81 101.27L96.6891 101.302C96.6489 101.313 96.616 101.311 96.5905 101.296L87.0309 100.11C87.3254 101.303 87.5007 102.291 87.5571 103.074C87.608 103.836 87.5782 104.415 87.4674 104.811C87.3821 105.221 87.2261 105.446 86.9992 105.484C86.7925 105.517 86.5686 105.404 86.3275 105.145L80.8849 81.0477ZM99.7367 100.237C99.3901 98.9279 98.9946 97.5563 98.5503 96.1223C98.1261 94.6829 97.6892 93.2361 97.2395 91.7819C96.8047 90.3023 96.408 88.8448 96.0496 87.4096C95.6911 85.9744 95.4272 84.6111 95.2577 83.3198C95.2926 83.289 95.3806 83.2549 95.5216 83.2176C95.6774 83.1548 95.7855 83.1154 95.8459 83.0994C96.1278 83.0248 96.3627 83.0165 96.5505 83.0745C96.753 83.1071 96.8943 83.2744 96.9743 83.5765C97.2889 84.7647 97.6228 86.0664 97.9759 87.4815C98.3438 88.8711 98.7096 90.2936 99.0734 91.749C99.452 93.1789 99.8279 94.5987 100.201 96.0084C100.574 97.4182 100.933 98.6917 101.277 99.829C101.388 100.166 101.376 100.406 101.242 100.55C101.133 100.708 100.968 100.816 100.746 100.875C100.504 100.939 100.287 100.932 100.094 100.854C99.9061 100.795 99.7871 100.59 99.7367 100.237ZM93.3454 78.7831C93.2814 78.5415 93.3193 78.359 93.4591 78.2358C93.5988 78.1126 93.7694 78.0243 93.9708 77.971C94.3736 77.8644 94.66 77.9286 94.83 78.1638C95.0001 78.3989 95.1304 78.6877 95.221 79.0301C95.1588 79.2836 95.0505 79.4847 94.8959 79.6334C94.7359 79.7619 94.5499 79.8327 94.3379 79.8458C94.1406 79.8333 93.9449 79.7451 93.7506 79.581C93.5764 79.4116 93.4413 79.1457 93.3454 78.7831ZM104.687 99.1527C103.745 96.4925 102.824 93.827 101.923 91.1562C101.037 88.4599 100.103 85.6682 99.1236 82.7812C98.9956 82.2978 99.1934 81.9868 99.7171 81.8482L99.9587 81.7842C100.019 81.7682 100.111 81.8301 100.234 81.9699C100.357 82.1097 100.518 82.3904 100.716 82.8122C100.928 83.2084 101.202 83.8363 101.538 84.6958C101.888 85.5298 102.33 86.6303 102.865 87.9974C103.399 89.3646 104.047 91.0788 104.808 93.1401C104.868 91.6586 104.849 90.2414 104.749 88.8885C104.65 87.5356 104.652 86.2849 104.758 85.1363C104.858 83.9676 105.144 82.8898 105.615 81.903C106.107 80.9108 106.956 80.0501 108.164 79.3208C108.921 79.2497 109.622 79.5381 110.268 80.1861C110.908 80.814 111.506 81.6471 112.061 82.6854C112.616 83.7238 113.118 84.8841 113.565 86.1665C114.007 87.4288 114.395 88.6514 114.73 89.8343C115.065 91.0172 115.357 92.0819 115.608 93.0284C115.853 93.9549 116.049 94.6141 116.196 95.0063C116.178 95.1834 116.125 95.3483 116.036 95.5012C115.947 95.654 115.83 95.7819 115.685 95.885C115.555 95.9626 115.417 96.01 115.27 96.0272C115.119 96.0243 114.959 95.9481 114.79 95.7989C114.731 95.5774 114.591 95.1295 114.369 94.4555C114.148 93.7814 113.887 92.9992 113.586 92.1089C113.281 91.1985 112.952 90.2404 112.599 89.2346C112.261 88.2034 111.942 87.2426 111.642 86.3523C111.357 85.4366 111.103 84.6417 110.881 83.9676C110.66 83.2935 110.51 82.8484 110.431 82.6322C109.811 81.999 109.276 81.6881 108.826 81.6993C108.397 81.7053 108.018 81.9455 107.692 82.42C107.385 82.8891 107.139 83.5469 106.953 84.3934C106.768 85.2399 106.629 86.1817 106.538 87.2189C106.441 88.236 106.377 89.2981 106.347 90.4051C106.317 91.5122 106.319 92.5785 106.353 93.6038C106.382 94.609 106.42 95.5257 106.467 96.3538C106.529 97.1564 106.595 97.7745 106.667 98.2081C106.644 98.365 106.55 98.5407 106.386 98.735C106.237 98.9038 106.06 99.0478 105.854 99.1668C105.669 99.2806 105.463 99.3567 105.236 99.3952C105.024 99.4082 104.841 99.3274 104.687 99.1527ZM123.687 107.182C125.433 106.612 126.7 105.781 127.488 104.689C128.296 103.591 128.779 102.321 128.936 100.879C129.093 99.4363 128.998 97.8559 128.651 96.1376C128.309 94.4393 127.86 92.7047 127.305 90.9336C126.75 89.1625 126.155 87.4021 125.519 85.6524C124.898 83.8771 124.392 82.2115 124.002 80.6554C123.808 83.4223 123.536 85.6924 123.187 87.4659C122.832 89.2193 122.429 90.5867 121.978 91.5683C121.541 92.5244 121.075 93.165 120.579 93.4902C120.098 93.79 119.627 93.8824 119.166 93.7675C118.699 93.6325 118.268 93.3479 117.873 92.9137C117.492 92.4541 117.18 91.9657 116.935 91.4486C116.73 90.5115 116.642 89.4465 116.671 88.2535C116.715 87.0351 116.857 85.8228 117.098 84.6168C117.354 83.3853 117.712 82.213 118.172 81.1C118.626 79.9668 119.176 79.0344 119.823 78.3029C120.465 77.5511 121.206 77.0532 122.046 76.8091C122.881 76.5449 123.782 76.6512 124.749 77.128C124.774 77.1428 124.877 77.4067 125.056 77.9196C125.249 78.4071 125.488 79.0658 125.773 79.8957C126.072 80.7 126.4 81.6152 126.758 82.6411C127.131 83.6416 127.499 84.6648 127.862 85.7109C128.22 86.7368 128.557 87.7251 128.873 88.6758C129.19 89.6265 129.471 90.4463 129.718 91.1352C130.103 92.2618 130.375 93.4936 130.535 94.8305C130.715 96.162 130.784 97.48 130.741 98.7844C130.704 100.109 130.545 101.379 130.264 102.596C130.002 103.807 129.6 104.851 129.056 105.728C128.533 106.6 127.852 107.243 127.014 107.659C126.201 108.09 125.235 108.184 124.114 107.942C124.054 107.958 123.961 107.972 123.835 107.984C123.714 108.016 123.605 108.012 123.508 107.973C123.432 107.928 123.401 107.851 123.414 107.739C123.428 107.628 123.519 107.442 123.687 107.182ZM118.45 90.8212C118.817 91.3922 119.164 91.6451 119.491 91.58C119.834 91.4893 120.14 91.1819 120.411 90.6576C120.676 90.1133 120.927 89.3897 121.162 88.487C121.417 87.5789 121.644 86.603 121.841 85.5593C122.039 84.5155 122.221 83.4543 122.388 82.3757C122.57 81.2715 122.741 80.2459 122.899 79.2987C122.841 79.0772 122.737 78.8891 122.588 78.7345C122.434 78.5598 122.197 78.558 121.876 78.7292C121.344 78.9994 120.862 79.4179 120.43 79.9848C120.018 80.5463 119.664 81.2006 119.366 81.9476C119.083 82.6691 118.848 83.453 118.663 84.2995C118.492 85.1205 118.365 85.9409 118.28 86.7607C118.21 87.5551 118.183 88.3059 118.198 89.0131C118.233 89.715 118.317 90.3177 118.45 90.8212ZM147.117 87.4985C146.685 85.8672 146.271 84.2634 145.876 82.6872C145.48 81.111 145.056 79.5529 144.606 78.0128C144.155 76.4727 143.664 74.9433 143.132 73.4246C142.595 71.8857 141.993 70.3427 141.325 68.7955C141.314 68.7552 141.262 68.6827 141.17 68.5778C141.098 68.4677 141.026 68.3575 140.953 68.2473C140.876 68.117 140.803 68.0068 140.736 67.9168C140.67 67.8268 140.631 67.7616 140.62 67.7213C140.593 67.6206 140.592 67.4918 140.615 67.3348C140.658 67.1725 140.714 67.0176 140.783 66.8701C140.866 66.6971 140.968 66.5517 141.087 66.4338C141.207 66.316 141.34 66.2484 141.486 66.2312C141.744 66.2277 141.975 66.3281 142.18 66.5324C142.405 66.7314 142.598 66.9713 142.759 67.2521C142.914 67.5127 143.039 67.7813 143.134 68.0579C143.249 68.3292 143.322 68.5253 143.354 68.6461C143.873 68.1639 144.457 67.6429 145.106 67.0831C145.77 66.4979 146.455 65.9502 147.16 65.4402C147.881 64.9046 148.607 64.4322 149.339 64.0229C150.086 63.588 150.812 63.2773 151.517 63.0907C151.565 63.272 151.567 63.4437 151.524 63.606C151.501 63.763 151.402 63.9185 151.227 64.0725L143.866 70.5795L144.178 71.7577C144.257 71.9739 144.378 72.3512 144.542 72.8896C144.726 73.4227 144.921 73.9961 145.127 74.6098C145.327 75.2033 145.512 75.7793 145.681 76.3379C145.866 76.871 145.995 77.2356 146.068 77.4316L151.371 72.3099L151.474 72.0887C151.543 71.9412 151.645 71.7958 151.779 71.6524C151.914 71.5091 152.061 71.4161 152.222 71.3734C152.398 71.3053 152.596 71.3607 152.816 71.5395C152.912 71.902 152.824 72.3025 152.552 72.7408C152.28 73.1792 151.918 73.6415 151.465 74.1278C151.012 74.6142 150.505 75.1038 149.946 75.5966C149.407 76.0842 148.906 76.551 148.442 76.997C147.978 77.4431 147.605 77.8651 147.323 78.2632C147.04 78.6613 146.934 78.9912 147.003 79.253L148.547 85.0834C148.835 85.1148 149.187 84.9785 149.602 84.6746C150.032 84.3453 150.494 83.9321 150.987 83.4351C151.481 82.9381 151.981 82.3854 152.488 81.777C152.989 81.1485 153.479 80.5556 153.956 79.9981C154.454 79.4354 154.912 78.9262 155.33 78.4707C155.768 78.0098 156.151 77.7039 156.477 77.5528C156.678 77.4995 156.87 77.4918 157.053 77.5297C157.235 77.5676 157.358 77.7074 157.422 77.949C157.486 78.1907 157.396 78.4194 157.151 78.635C156.559 79.2445 155.884 79.9942 155.128 80.8839C154.387 81.7482 153.629 82.6279 152.853 83.5229C152.072 84.3979 151.287 85.2198 150.5 85.9887C149.727 86.7321 149.029 87.2724 148.407 87.6095C148.145 87.6788 147.929 87.7146 147.757 87.717C147.585 87.7194 147.372 87.6465 147.117 87.4985ZM161.782 84.036C160.84 81.3759 159.919 78.7104 159.018 76.0395C158.132 73.3432 157.199 70.5516 156.219 67.6645C156.091 67.1812 156.289 66.8702 156.812 66.7316L157.054 66.6676C157.114 66.6516 157.206 66.7135 157.329 66.8533C157.453 66.993 157.613 67.2738 157.811 67.6956C158.024 68.0918 158.298 68.7197 158.633 69.5792C158.983 70.4132 159.425 71.5137 159.96 72.8808C160.494 74.2479 161.142 75.9621 161.903 78.0234C161.964 76.542 161.944 75.1248 161.844 73.7719C161.745 72.419 161.748 71.1683 161.853 70.0197C161.953 68.851 162.239 67.7732 162.71 66.7863C163.202 65.7941 164.052 64.9334 165.259 64.2042C166.016 64.1331 166.718 64.4215 167.363 65.0695C168.004 65.6973 168.601 66.5304 169.157 67.5688C169.712 68.6071 170.213 69.7675 170.66 71.0499C171.102 72.3122 171.49 73.5348 171.825 74.7176C172.16 75.9005 172.452 76.9653 172.703 77.9118C172.948 78.8382 173.144 79.4975 173.291 79.8896C173.274 80.0667 173.22 80.2317 173.132 80.3845C173.043 80.5374 172.926 80.6653 172.781 80.7684C172.65 80.846 172.512 80.8934 172.366 80.9106C172.214 80.9076 172.054 80.8315 171.885 80.6823C171.826 80.4607 171.686 80.0129 171.465 79.3388C171.243 78.6648 170.982 77.8826 170.682 76.9923C170.376 76.0819 170.047 75.1238 169.694 74.118C169.357 73.0868 169.038 72.126 168.737 71.2357C168.452 70.32 168.198 69.5251 167.977 68.851C167.755 68.1769 167.605 67.7318 167.526 67.5156C166.906 66.8824 166.371 66.5714 165.921 66.5827C165.492 66.5887 165.114 66.8289 164.787 67.3034C164.48 67.7725 164.234 68.4303 164.049 69.2768C163.863 70.1233 163.725 71.0651 163.633 72.1023C163.536 73.1193 163.472 74.1814 163.442 75.2885C163.412 76.3956 163.414 77.4618 163.448 78.4872C163.477 79.4924 163.515 80.409 163.562 81.2371C163.624 82.0397 163.691 82.6579 163.762 83.0914C163.739 83.2484 163.646 83.4241 163.482 83.6183C163.332 83.7872 163.155 83.9311 162.949 84.0502C162.764 84.1639 162.558 84.2401 162.331 84.2786C162.119 84.2916 161.936 84.2108 161.782 84.036ZM172.971 67.6903C172.796 67.8443 172.634 68.0058 172.485 68.1746C172.35 68.3179 172.216 68.4613 172.082 68.6046C171.942 68.7279 171.797 68.8309 171.646 68.9139C171.496 68.9968 171.325 69.0421 171.133 69.0498C171.012 69.0818 170.892 69.038 170.775 68.9184C170.651 68.7786 170.546 68.6234 170.457 68.4528C170.344 68.2674 170.253 68.0867 170.185 67.9108C170.111 67.7148 170.071 67.5637 170.065 67.4577L172.525 65.0283L170.658 57.2468C170.629 56.9743 170.764 56.831 171.062 56.8168C171.354 56.7824 171.662 56.7655 171.986 56.7661C172.026 56.7554 172.092 56.7595 172.183 56.7785C172.289 56.772 172.365 56.7735 172.411 56.7829C172.514 57.3374 172.621 57.9448 172.731 58.6053C172.856 59.2402 172.984 59.8853 173.114 60.5404C173.239 61.1754 173.372 61.7977 173.512 62.4072C173.672 63.0114 173.846 63.5471 174.034 64.0145L178.23 61.546C178.305 61.5045 178.381 61.5489 178.459 61.6792C178.551 61.7841 178.642 61.9218 178.73 62.0924C178.838 62.2576 178.927 62.4282 178.995 62.6041C179.063 62.7801 179.097 62.868 179.097 62.868L174.537 66.4028C174.585 66.584 174.71 67.0144 174.911 67.6938C175.133 68.3678 175.389 69.1728 175.68 70.1087C175.966 71.0245 176.273 72.0208 176.601 73.0976C176.924 74.1544 177.228 75.1406 177.513 76.0563C177.799 76.9721 178.045 77.7797 178.252 78.4793C178.453 79.1587 178.578 79.589 178.626 79.7703C178.746 80.3851 178.644 80.7352 178.322 80.8205C178.02 80.9005 177.648 80.8374 177.205 80.6313L172.971 67.6903ZM191.228 62.5333C190.408 62.4486 189.722 62.7487 189.171 63.4335C188.62 64.1183 188.154 65.0065 187.775 66.0982C187.391 67.1698 187.071 68.3643 186.817 69.6816C186.562 70.999 186.332 72.2453 186.126 73.4206C185.92 74.5958 185.714 75.6093 185.508 76.4611C185.323 77.3076 185.08 77.8137 184.779 77.9796C184.537 78.0436 184.335 78.054 184.173 78.0107C184.025 77.942 183.904 77.7264 183.808 77.3639L178.185 56.1269C178.137 55.9456 178.178 55.8162 178.308 55.7386C178.459 55.6557 178.627 55.6003 178.814 55.5724C179.001 55.5446 179.185 55.5496 179.368 55.5875C179.545 55.6053 179.664 55.6491 179.726 55.719L184.621 72.6228C184.747 72.2016 184.815 71.6448 184.826 70.9523C184.851 70.2344 184.896 69.4682 184.961 68.6537C185.02 67.8191 185.122 66.9839 185.267 66.1481C185.427 65.2868 185.689 64.4848 186.052 63.742C186.416 62.9991 186.928 62.368 187.588 61.8485C188.262 61.3035 189.126 60.9453 190.18 60.7741C190.865 60.5928 191.477 60.6677 192.018 60.9988C192.553 61.3098 192.923 61.815 193.13 62.5146L196.624 74.488C196.645 74.5686 196.657 74.6947 196.659 74.8665C196.676 75.0128 196.628 75.155 196.513 75.293C196.425 75.4458 196.262 75.5643 196.026 75.6484C195.815 75.7474 195.509 75.7743 195.11 75.7293L191.228 62.5333ZM205.063 69.2471C205.047 69.5101 204.933 69.8957 204.723 70.404C204.528 70.8867 204.274 71.3956 203.963 71.9305C203.647 72.4452 203.3 72.9251 202.922 73.3699C202.559 73.7893 202.206 74.0443 201.864 74.135C201.22 74.3056 200.606 74.1448 200.023 73.6526C199.46 73.1551 198.943 72.4624 198.471 71.5745C197.998 70.6866 197.57 69.6793 197.186 68.5527C196.796 67.4059 196.444 66.2814 196.131 65.1791C195.817 64.0767 195.541 63.0724 195.301 62.1661C195.061 61.2599 194.849 60.5831 194.666 60.1359C194.694 59.9132 194.762 59.7657 194.872 59.6934C195.003 59.6158 195.159 59.553 195.34 59.505C195.501 59.4624 195.647 59.4452 195.779 59.4535C195.93 59.4564 196.083 59.5453 196.237 59.72C196.296 59.9415 196.394 60.3141 196.533 60.8377C196.692 61.356 196.879 61.9422 197.096 62.5961C197.307 63.2299 197.528 63.904 197.76 64.6183C197.987 65.3125 198.196 65.9792 198.387 66.6183C198.598 67.2521 198.783 67.8282 198.941 68.3465C199.115 68.8393 199.244 69.2039 199.328 69.4402C199.385 69.5759 199.467 69.8021 199.572 70.119C199.698 70.4306 199.839 70.7596 199.995 71.1061C200.167 71.4272 200.34 71.7153 200.515 71.9706C200.711 72.2206 200.902 72.3317 201.088 72.3038C201.39 72.2238 201.658 72.0129 201.891 71.6711C202.143 71.324 202.368 70.9091 202.563 70.4263C202.759 69.9435 202.923 69.4258 203.057 68.8731C203.191 68.3205 203.3 67.796 203.384 67.2996C203.483 66.7777 203.535 66.3222 203.539 65.933C203.564 65.5385 203.565 65.258 203.543 65.0916C203.492 64.7386 203.405 64.2445 203.28 63.6096C203.149 62.9544 202.998 62.2617 202.826 61.5313C202.655 60.801 202.483 60.1136 202.313 59.4691C202.162 58.8193 202.042 58.3233 201.951 57.9809L203.637 57.6316C204.089 59.2576 204.471 60.7405 204.782 62.0803C205.088 63.4001 205.406 64.6413 205.736 65.8041C206.06 66.9467 206.446 68.0404 206.895 69.0853C207.344 70.1302 207.935 71.1807 208.667 72.2368C208.623 72.3132 208.523 72.4257 208.369 72.5744C208.219 72.7432 208.105 72.8383 208.024 72.8597C207.521 72.993 207.133 72.9124 206.861 72.618C206.615 72.3385 206.402 71.9851 206.225 71.5581C206.062 71.1055 205.902 70.6631 205.744 70.2307C205.601 69.7728 205.374 69.4449 205.063 69.2471ZM212.578 70.5226C212.583 70.5428 212.762 70.3659 213.116 69.9921C213.49 69.613 213.913 69.1347 214.385 68.5571C214.872 67.9541 215.361 67.3182 215.852 66.6494C216.337 65.9605 216.72 65.3311 217 64.7613C217.28 64.1914 217.388 63.7427 217.323 63.4151C217.272 63.0621 216.942 62.9125 216.331 62.9665C215.579 63.0577 214.968 63.2304 214.496 63.4846C214.045 63.7334 213.639 63.9917 213.279 64.2594C212.919 64.5272 212.576 64.7795 212.251 65.0165C211.946 65.2481 211.577 65.3998 211.143 65.4715C210.257 65.7061 209.571 65.5968 209.085 65.1437C208.613 64.6651 208.252 63.9526 208.001 63.006C207.751 62.0595 207.725 61.1073 207.924 60.1494C208.117 59.1715 208.464 58.2823 208.963 57.4821C209.463 56.6818 210.097 55.9857 210.867 55.3939C211.632 54.782 212.467 54.3561 213.374 54.1161C213.736 54.0202 214.056 53.9677 214.334 53.9588C214.612 53.9499 214.804 54.1469 214.911 54.5496C214.985 54.8316 214.937 55.1355 214.764 55.4613C214.587 55.7669 214.347 55.9598 214.045 56.0397C214.024 56.0451 213.971 56.0483 213.886 56.0495C213.794 56.0306 213.7 56.0015 213.604 55.9625C213.507 55.9234 213.416 55.9044 213.33 55.9056C213.239 55.8867 213.183 55.8798 213.163 55.8852C212.471 55.8746 211.87 56.1305 211.362 56.6529C210.854 57.1754 210.441 57.8128 210.123 58.5651C209.82 59.2919 209.623 60.0552 209.533 60.8548C209.438 61.6344 209.465 62.3061 209.614 62.87C209.673 63.0915 209.761 63.2621 209.879 63.3818C210.011 63.4759 210.156 63.5346 210.313 63.5577C210.49 63.5754 210.672 63.5704 210.859 63.5425C211.06 63.4892 211.262 63.4359 211.463 63.3826C211.866 63.2759 212.253 63.1089 212.623 62.8814C213.014 62.6486 213.38 62.4009 213.72 62.1385C214.08 61.8708 214.445 61.6231 214.816 61.3957C215.207 61.1629 215.624 60.9878 216.067 60.8705C216.269 60.8172 216.506 60.8189 216.78 60.8758C217.048 60.9125 217.312 61.015 217.572 61.1832C217.827 61.3312 218.062 61.5276 218.278 61.7722C218.488 61.9967 218.646 62.2674 218.751 62.5843C218.947 62.8343 219.005 63.2175 218.927 63.734C218.868 64.2452 218.717 64.8133 218.473 65.4382C218.229 66.0632 217.907 66.7195 217.507 67.4072C217.102 68.0748 216.686 68.7021 216.259 69.2892C215.828 69.8561 215.385 70.3397 214.93 70.7402C214.481 71.1608 214.073 71.409 213.705 71.4848C213.302 71.5915 213.029 71.5346 212.884 71.3143C212.76 71.0886 212.658 70.8247 212.578 70.5226ZM221.963 67.8761C221.616 66.5671 221.221 65.1955 220.776 63.7615C220.352 62.3221 219.915 60.8753 219.466 59.4211C219.031 57.9415 218.634 56.484 218.276 55.0488C217.917 53.6136 217.653 52.2503 217.484 50.959C217.519 50.9282 217.607 50.8942 217.748 50.8568C217.903 50.794 218.012 50.7546 218.072 50.7386C218.354 50.664 218.589 50.6557 218.777 50.7137C218.979 50.7463 219.12 50.9136 219.2 51.2157C219.515 52.4039 219.849 53.7056 220.202 55.1207C220.57 56.5103 220.936 57.9328 221.3 59.3882C221.678 60.8181 222.054 62.2379 222.427 63.6477C222.801 65.0574 223.159 66.3309 223.503 67.4682C223.614 67.8053 223.602 68.0455 223.468 68.1888C223.359 68.347 223.194 68.4554 222.972 68.514C222.731 68.578 222.513 68.5709 222.32 68.4927C222.132 68.4347 222.013 68.2292 221.963 67.8761ZM215.571 46.4224C215.507 46.1807 215.545 45.9982 215.685 45.875C215.825 45.7518 215.996 45.6635 216.197 45.6102C216.6 45.5036 216.886 45.5678 217.056 45.803C217.226 46.0381 217.356 46.3269 217.447 46.6693C217.385 46.9228 217.277 47.1239 217.122 47.2726C216.962 47.4011 216.776 47.4719 216.564 47.485C216.367 47.4725 216.171 47.3843 215.977 47.2202C215.803 47.0508 215.667 46.7849 215.571 46.4224ZM234.119 64.4636C233.88 63.9666 233.624 63.3663 233.352 62.6626C233.094 61.9335 232.826 61.207 232.548 60.4831C232.265 59.7392 231.975 59.0509 231.678 58.4183C231.402 57.7803 231.096 57.2792 230.763 56.9149C230.29 59.2814 229.821 61.1728 229.356 62.5891C228.885 63.9853 228.417 65.0251 227.951 65.7087C227.501 66.3668 227.071 66.7392 226.663 66.8257C226.255 66.9122 225.875 66.8189 225.522 66.5458C225.17 66.2728 224.864 65.8904 224.604 65.3988C224.36 64.8817 224.156 64.3969 223.993 63.9443C223.876 63.5013 223.811 62.8503 223.799 61.9914C223.787 61.1325 223.827 60.1844 223.919 59.1472C224.005 58.0899 224.149 57.0065 224.351 55.897C224.573 54.7822 224.85 53.7501 225.18 52.8005C225.511 51.851 225.899 51.0371 226.344 50.3588C226.789 49.6806 227.304 49.2641 227.888 49.1095C228.717 48.7392 229.402 48.7626 229.943 49.1796C230.5 49.5711 230.807 50.4057 230.865 51.6834C231.217 53.0126 231.568 54.1371 231.92 55.057C232.291 55.9716 232.652 56.8458 233.002 57.6798C233.372 58.5085 233.733 59.3828 234.084 60.3027C234.456 61.2172 234.818 62.3391 235.169 63.6683C235.233 63.91 235.259 64.1295 235.247 64.3267C235.249 64.4985 235.029 64.643 234.586 64.7603C234.525 64.7763 234.431 64.7473 234.304 64.6733C234.197 64.5939 234.135 64.524 234.119 64.4636ZM228.913 51.392C228.606 51.1284 228.296 51.1782 227.983 51.5413C227.669 51.9045 227.381 52.4441 227.118 53.1603C226.855 53.8764 226.614 54.7161 226.395 55.6792C226.176 56.6424 225.99 57.6076 225.836 58.5749C225.683 59.5422 225.569 60.4559 225.495 61.316C225.416 62.156 225.392 62.841 225.425 63.3712C225.617 64.0962 225.837 64.4797 226.085 64.5218C226.328 64.5437 226.568 64.3508 226.805 63.9433C227.042 63.5358 227.282 62.9766 227.525 62.2657C227.788 61.5496 228.02 60.7985 228.221 60.0124C228.443 59.2211 228.639 58.4578 228.811 57.7227C229.003 56.9823 229.146 56.384 229.241 55.9279C229.31 55.457 229.347 55.0269 229.352 54.6377C229.357 54.2486 229.347 53.8849 229.322 53.5466C229.312 53.183 229.261 52.8299 229.171 52.4875C229.1 52.1398 229.014 51.7747 228.913 51.392ZM239.343 63.4362C239.348 63.4563 239.528 63.2795 239.881 62.9057C240.255 62.5266 240.678 62.0483 241.15 61.4707C241.637 60.8677 242.126 60.2318 242.617 59.563C243.102 58.8741 243.485 58.2447 243.766 57.6748C244.046 57.105 244.153 56.6563 244.088 56.3287C244.038 55.9757 243.707 55.8261 243.096 55.8801C242.345 55.9713 241.733 56.144 241.262 56.3982C240.81 56.647 240.405 56.9053 240.044 57.173C239.684 57.4408 239.342 57.6931 239.016 57.9301C238.711 58.1617 238.342 58.3134 237.908 58.3851C237.022 58.6197 236.336 58.5104 235.85 58.0573C235.378 57.5787 235.017 56.8661 234.767 55.9196C234.516 54.973 234.49 54.0208 234.689 53.063C234.883 52.085 235.229 51.1959 235.729 50.3956C236.228 49.5954 236.863 48.8993 237.633 48.3075C238.397 47.6956 239.233 47.2697 240.139 47.0297C240.501 46.9337 240.822 46.8813 241.099 46.8724C241.377 46.8635 241.569 47.0604 241.676 47.4632C241.751 47.7452 241.702 48.0491 241.53 48.3749C241.352 48.6805 241.112 48.8733 240.81 48.9533C240.79 48.9586 240.737 48.9619 240.651 48.9631C240.56 48.9441 240.466 48.9151 240.369 48.876C240.273 48.8369 240.181 48.818 240.096 48.8192C240.004 48.8002 239.949 48.7934 239.928 48.7988C239.236 48.7881 238.636 49.0441 238.127 49.5665C237.619 50.089 237.206 50.7264 236.888 51.4787C236.585 52.2055 236.388 52.9687 236.298 53.7684C236.203 54.5479 236.23 55.2197 236.379 55.7836C236.438 56.0051 236.526 56.1757 236.644 56.2953C236.777 56.3895 236.922 56.4481 237.079 56.4712C237.256 56.489 237.437 56.484 237.624 56.4561C237.825 56.4028 238.027 56.3495 238.228 56.2961C238.631 56.1895 239.018 56.0224 239.389 55.795C239.78 55.5621 240.145 55.3145 240.485 55.0521C240.845 54.7843 241.211 54.5367 241.581 54.3092C241.972 54.0764 242.389 53.9014 242.832 53.7841C243.034 53.7307 243.271 53.7325 243.545 53.7894C243.813 53.8261 244.078 53.9285 244.338 54.0967C244.592 54.2448 244.827 54.4412 245.043 54.6858C245.253 54.9103 245.411 55.181 245.517 55.4979C245.712 55.7478 245.771 56.1311 245.692 56.6476C245.633 57.1588 245.482 57.7269 245.238 58.3518C244.994 58.9767 244.672 59.6331 244.272 60.3208C243.867 60.9884 243.451 61.6157 243.025 62.2027C242.593 62.7696 242.15 63.2533 241.696 63.6538C241.247 64.0743 240.838 64.3226 240.47 64.3984C240.068 64.505 239.794 64.4482 239.649 64.2278C239.525 64.0022 239.423 63.7383 239.343 63.4362ZM245.805 48.4066C245.63 48.5606 245.468 48.7221 245.319 48.8909C245.185 49.0342 245.05 49.1776 244.916 49.3209C244.776 49.4442 244.631 49.5472 244.48 49.6302C244.33 49.7131 244.159 49.7584 243.967 49.7661C243.846 49.7981 243.727 49.7543 243.609 49.6347C243.486 49.4949 243.38 49.3397 243.292 49.1691C243.178 48.9837 243.087 48.803 243.019 48.6271C242.945 48.431 242.905 48.28 242.899 48.174L245.359 45.7446L243.493 37.9631C243.464 37.6906 243.598 37.5473 243.896 37.5331C244.189 37.4987 244.497 37.4818 244.82 37.4824C244.86 37.4717 244.926 37.4758 245.017 37.4948C245.123 37.4883 245.199 37.4897 245.245 37.4992C245.348 38.0537 245.455 38.6611 245.566 39.3216C245.691 39.9565 245.818 40.6016 245.949 41.2567C246.074 41.8917 246.206 42.514 246.346 43.1235C246.506 43.7277 246.68 44.2634 246.868 44.7308L251.064 42.2623C251.139 42.2208 251.216 42.2652 251.293 42.3955C251.386 42.5004 251.476 42.6381 251.564 42.8087C251.673 42.9739 251.761 43.1445 251.829 43.3204C251.897 43.4964 251.931 43.5843 251.931 43.5843L247.371 47.1191C247.419 47.3003 247.544 47.7307 247.746 48.4101C247.967 49.0841 248.223 49.8891 248.514 50.825C248.8 51.7408 249.107 52.7371 249.435 53.8139C249.758 54.8707 250.062 55.8569 250.348 56.7726C250.633 57.6884 250.879 58.496 251.086 59.1956C251.288 59.875 251.412 60.3053 251.46 60.4866C251.58 61.1014 251.479 61.4515 251.156 61.5368C250.854 61.6168 250.482 61.5537 250.04 61.3476L245.805 48.4066ZM252.529 44.6221C252.039 42.7692 251.594 40.9259 251.194 39.092C250.79 37.238 250.392 35.3283 250.001 33.3629C250.019 33.1858 250.062 33.0665 250.132 33.0049C250.197 32.9231 250.3 32.8636 250.441 32.8262C250.642 32.7729 250.799 32.796 250.911 32.8955C251.019 32.9749 251.101 33.0824 251.159 33.218C251.236 33.3484 251.289 33.5068 251.317 33.6934C251.359 33.8545 251.397 33.9955 251.429 34.1163L253.876 43.3603C253.972 43.7228 254.104 44.0975 254.271 44.4843L254.772 45.6446C254.959 46.0261 255.111 46.3954 255.227 46.7526C255.358 47.0843 255.415 47.3817 255.398 47.6447C255.417 47.8769 255.347 48.1002 255.188 48.3146C255.049 48.5237 254.869 48.6576 254.648 48.7162C254.285 48.8122 253.985 48.6976 253.748 48.3724C253.511 48.0473 253.309 47.6483 253.141 47.1756C252.993 46.6976 252.865 46.2143 252.757 45.7256C252.669 45.2316 252.593 44.8637 252.529 44.6221ZM258.152 58.1654L258.024 57.6821C257.997 57.5814 257.98 57.478 257.974 57.372C257.962 57.2458 257.976 57.1345 258.015 57.0379C258.054 56.9414 258.134 56.8771 258.255 56.8451C258.657 56.7384 258.916 56.7778 259.029 56.9632C259.158 57.1231 259.257 57.334 259.326 57.5958C259.401 57.8778 259.422 58.12 259.389 58.3226C259.377 58.5199 259.169 58.6718 258.766 58.7785C258.646 58.8105 258.544 58.7942 258.463 58.7296C258.381 58.6651 258.317 58.5851 258.27 58.4897C258.218 58.3742 258.178 58.2661 258.152 58.1654Z" fill="#B93160"/>
</svg>
