<?xml version="1.0" encoding="UTF-8" standalone="no"?>
<svg
   width="67"
   height="67"
   viewBox="0 0 67 67"
   fill="none"
   xmlns="http://www.w3.org/2000/svg">

  <path
     d="M 55.8293,17.6391 C 53.1921,15.0023 50.0553,12.9181 46.6027,11.5085 43.1501,10.0989 39.451,9.39214 35.7219,9.42969 H 35.5 c -3.716,-0.00365 -7.3962,0.72561 -10.8301,2.14591 -3.4338,1.4204 -6.5538,3.504 -9.1814,6.1316 -2.6276,2.6276 -4.7113,5.7476 -6.13162,9.1815 -1.42036,3.4338 -2.14959,7.1141 -2.14594,10.8301 V 53.25 c 0.00729,1.616 0.65248,3.1637 1.79516,4.3064 1.1427,1.1427 2.6904,1.7879 4.3064,1.7952 H 17.75 c 1.616,-0.0073 3.1637,-0.6525 4.3064,-1.7952 1.1427,-1.1427 1.7879,-2.6904 1.7952,-4.3064 V 42.1563 C 23.8443,40.5403 23.1991,38.9925 22.0564,37.8499 20.9137,36.7072 19.366,36.062 17.75,36.0547 l -6.562373,-0.01416 c 0.413961,-6.194919 3.168543,-12.000568 7.70507,-16.239336 4.536624,-4.238866 10.515499,-6.593596 16.724234,-6.586737 h 0.380452 c 6.204031,0 12.176244,2.357865 16.70699,6.595947 4.530843,4.23818 7.281506,10.03991 7.695173,16.230126 L 53.666,36.0547 c -1.618196,0.0034 -3.1702,0.6428 -4.3144,1.7871 -1.1443,1.1443 -1.7872,2.6962 -1.7872,4.3145 V 53.25 c 0,1.6182 0.6429,3.1702 1.7872,4.3145 1.1442,1.1442 2.6962,1.7871 4.3144,1.7871 h 4.4375 c 1.616,-0.0073 3.1637,-0.6525 4.3064,-1.7952 1.1427,-1.1427 1.7879,-2.6904 1.7952,-4.3064 V 37.7188 c 0.0121,-3.7362 -0.7226,-7.4371 -2.161,-10.8854 -1.4383,-3.4482 -3.5513,-6.5742 -6.2148,-9.1943 z M 17.676782,39.969947 c 0.661581,0 1.296,0.262798 1.763766,0.730563 0.467765,0.467855 0.730562,1.102274 0.730562,1.763855 v 9.977402 c 0,0.661581 -0.262797,1.296 -0.730562,1.763765 -0.467766,0.467766 -1.102185,0.730563 -1.763766,0.730563 h -3.990978 c -0.661581,0 -1.296001,-0.262797 -1.763766,-0.730563 -0.467765,-0.467765 -0.730652,-1.102184 -0.730652,-1.763765 v -12.47182 z m 42.576673,12.55254 c 0,0.652961 -0.259285,1.279115 -0.721046,1.740786 -0.461671,0.461671 -1.087825,0.721045 -1.740786,0.721045 h -3.938984 c -0.652872,0 -1.279116,-0.259374 -1.740787,-0.721045 -0.461671,-0.461671 -0.721044,-1.087825 -0.721044,-1.740786 v -9.847415 c 0,-0.652962 0.259373,-1.279116 0.721044,-1.740876 0.461671,-0.461671 1.087915,-0.721045 1.740787,-0.721045 h 6.400816 z"
     fill="#f8f8f8" />
</svg>