<svg width="223" height="71" viewBox="0 0 223 71" fill="none" xmlns="http://www.w3.org/2000/svg">
<path d="M5.5057 10.3813C5.16402 10.1472 4.69722 10.2343 4.46306 10.576L0.647279 16.144C0.413124 16.4857 0.500288 16.9525 0.841967 17.1866C1.18365 17.4208 1.65045 17.3336 1.88461 16.9919L5.27641 12.0426L10.2257 15.4344C10.5674 15.6686 11.0342 15.5814 11.2684 15.2398C11.5025 14.8981 11.4154 14.4313 11.0737 14.1971L5.5057 10.3813ZM4.34447 11.1377C6.10371 20.5592 9.6787 30.0381 20.2302 36.8634C30.7309 43.6558 48.0269 47.7432 77.0257 46.7496L76.9743 45.2504C48.0838 46.2404 31.1609 42.1475 21.0449 35.6039C10.9797 29.0932 7.54021 20.0803 5.81898 10.8623L4.34447 11.1377Z" fill="#B93160"/>
<path d="M103.79 36.0739C103.132 36.1824 102.475 36.3543 101.817 36.5895C101.179 36.8213 100.545 37.0737 99.9144 37.3467C99.2804 37.599 98.6446 37.8412 98.0072 38.073C97.3698 38.3048 96.7119 38.4767 96.0335 38.5886C95.828 38.6225 95.6088 38.6375 95.3759 38.6337C95.1601 38.606 95.0268 38.4379 94.976 38.1296C94.9421 37.924 94.9904 37.7049 95.1209 37.4722C95.2686 37.2156 95.4436 37.0601 95.6457 37.0056L103.711 34.44C103.718 34.3544 103.728 34.226 103.742 34.0548C103.753 33.863 103.775 33.6798 103.81 33.5052C103.862 33.3066 103.939 33.1355 104.042 32.9918C104.142 32.8276 104.274 32.7319 104.438 32.7048C104.685 32.6641 104.89 32.6936 105.054 32.7932C105.219 32.8928 105.366 33.0163 105.496 33.1638C105.622 33.2907 105.737 33.4091 105.839 33.5189C105.942 33.6286 106.055 33.6733 106.178 33.653L106.425 33.6123C106.627 33.5578 106.951 33.4728 107.396 33.3571C107.838 33.2208 108.342 33.0744 108.907 32.9178C109.493 32.7578 110.11 32.5927 110.758 32.4225C111.402 32.2318 112.019 32.0667 112.608 31.9273C113.194 31.7673 113.71 31.6294 114.155 31.5137C114.597 31.3774 114.917 31.2718 115.116 31.1968C115.178 31.1866 115.322 31.1629 115.548 31.1256C115.791 31.0643 115.964 31.0252 116.067 31.0083C116.131 31.3988 115.97 31.7633 115.582 32.1018C115.212 32.4162 114.713 32.7202 114.086 33.0137C113.476 33.2833 112.778 33.5356 111.993 33.7706C111.226 33.9817 110.467 34.1807 109.717 34.3679C108.987 34.5516 108.307 34.7166 107.676 34.8628C107.066 35.0056 106.602 35.135 106.283 35.2509C106.442 36.7239 106.723 38.24 107.128 39.799C107.554 41.3547 108.012 42.9155 108.503 44.4815C109.014 46.0442 109.503 47.5999 109.969 49.1488C110.436 50.6977 110.788 52.1916 111.025 53.6305C111.155 53.9047 111.223 54.1257 111.23 54.2935C111.257 54.458 111.224 54.5795 111.131 54.6581C111.039 54.7367 110.89 54.793 110.684 54.8269C110.479 54.8608 110.23 54.8912 109.939 54.9181C109.611 54.2121 109.284 53.3792 108.957 52.4197C108.647 51.4362 108.337 50.3894 108.027 49.2791C107.714 48.1484 107.396 46.9868 107.072 45.7943C106.769 44.5985 106.468 43.413 106.169 42.2377C105.869 41.0624 105.568 39.9402 105.265 38.8711C104.962 37.802 104.655 36.8391 104.345 35.9823L103.79 36.0739ZM126.155 38.4025C125.347 38.2402 124.636 38.4737 124.022 39.1028C123.408 39.732 122.86 40.5719 122.379 41.6226C121.894 42.6527 121.462 43.8113 121.083 45.0985C120.704 46.3856 120.356 47.6044 120.039 48.7546C119.722 49.9049 119.421 50.8942 119.135 51.7226C118.87 52.5476 118.58 53.0283 118.265 53.1648C118.018 53.2054 117.816 53.1965 117.659 53.1381C117.518 53.0556 117.418 52.8294 117.357 52.4594L113.781 30.7836C113.751 30.5986 113.804 30.4736 113.941 30.4088C114.099 30.3406 114.272 30.3015 114.46 30.2915C114.648 30.2815 114.832 30.3041 115.01 30.3592C115.184 30.3937 115.299 30.4487 115.354 30.5242L118.618 47.8172C118.783 47.4099 118.904 46.8621 118.98 46.1738C119.074 45.4616 119.192 44.7032 119.333 43.8985C119.472 43.0733 119.653 42.2516 119.877 41.4335C120.118 40.5913 120.455 39.8178 120.888 39.113C121.32 38.4082 121.89 37.8286 122.596 37.3743C123.32 36.896 124.214 36.6217 125.279 36.5516C125.978 36.4363 126.581 36.5692 127.087 36.9502C127.59 37.3107 127.911 37.8489 128.05 38.565L130.388 50.8166C130.402 50.8988 130.401 51.0256 130.387 51.1968C130.391 51.3441 130.329 51.481 130.202 51.6075C130.099 51.7512 129.926 51.8536 129.682 51.9149C129.463 51.9933 129.156 51.991 128.763 51.9082L126.155 38.4025ZM140.671 49.0254C140.48 48.5079 140.283 47.8859 140.078 47.1595C139.891 46.4091 139.694 45.6604 139.486 44.9134C139.275 44.1459 139.052 43.4331 138.817 42.7751C138.602 42.1138 138.346 41.5859 138.049 41.1915C137.353 43.5022 136.706 45.3403 136.108 46.7059C135.506 48.0509 134.941 49.0415 134.413 49.6777C133.901 50.2899 133.438 50.6196 133.024 50.6669C132.609 50.7142 132.24 50.5851 131.915 50.2797C131.59 49.9744 131.322 49.5646 131.11 49.0505C130.916 48.5125 130.759 48.0105 130.64 47.5445C130.565 47.0922 130.563 46.4381 130.633 45.5819C130.703 44.7258 130.833 43.7859 131.023 42.7621C131.21 41.7178 131.456 40.6531 131.763 39.5678C132.09 38.4792 132.464 37.4781 132.883 36.5643C133.302 35.6505 133.766 34.8772 134.274 34.2445C134.782 33.6117 135.334 33.2462 135.93 33.1478C136.79 32.8581 137.47 32.9466 137.969 33.4132C138.486 33.8559 138.712 34.716 138.648 35.9934C138.872 37.3501 139.115 38.503 139.377 39.4521C139.66 40.3979 139.936 41.3025 140.205 42.1661C140.494 43.0262 140.77 43.9309 141.032 44.8801C141.315 45.8258 141.568 46.977 141.792 48.3337C141.833 48.5804 141.838 48.8013 141.806 48.9965C141.792 49.1677 141.559 49.2906 141.107 49.3652C141.045 49.3754 140.955 49.3375 140.835 49.2517C140.736 49.1625 140.681 49.0871 140.671 49.0254ZM136.733 35.5175C136.452 35.2259 136.139 35.246 135.792 35.5776C135.446 35.9093 135.108 36.419 134.778 37.1069C134.448 37.7948 134.128 38.6077 133.818 39.5456C133.508 40.4835 133.231 41.4266 132.986 42.3749C132.741 43.3233 132.541 44.222 132.386 45.0711C132.227 45.8997 132.138 46.5794 132.12 47.1103C132.242 47.8503 132.425 48.253 132.668 48.3185C132.908 48.3634 133.165 48.1943 133.44 47.8112C133.714 47.428 134.006 46.8942 134.316 46.2097C134.646 45.5219 134.948 44.7963 135.223 44.033C135.519 43.2662 135.788 42.5252 136.029 41.8098C136.29 41.091 136.49 40.509 136.627 40.064C136.741 39.6018 136.819 39.1773 136.861 38.7903C136.902 38.4034 136.927 38.0404 136.934 37.7013C136.959 37.3383 136.943 36.9821 136.885 36.6326C136.848 36.2798 136.797 35.9081 136.733 35.5175ZM142.27 36.0611C142.081 36.1978 141.905 36.343 141.74 36.4969C141.593 36.6268 141.445 36.7567 141.298 36.8866C141.147 36.9959 140.992 37.0847 140.835 37.153C140.677 37.2212 140.502 37.25 140.311 37.2394C140.187 37.2598 140.073 37.2048 139.967 37.0745C139.857 36.9236 139.767 36.759 139.695 36.5808C139.6 36.3854 139.526 36.1969 139.475 36.0153C139.421 35.8131 139.395 35.659 139.399 35.5528L142.079 33.3687L140.962 25.4449C140.959 25.1709 141.107 25.041 141.405 25.0552C141.699 25.0488 142.007 25.0613 142.329 25.0927C142.37 25.0859 142.435 25.0963 142.524 25.1238C142.631 25.1274 142.706 25.1361 142.75 25.1499C142.801 25.7117 142.85 26.3265 142.896 26.9945C142.96 27.6385 143.026 28.2928 143.093 28.9573C143.157 29.6013 143.23 30.2334 143.311 30.8534C143.413 31.4701 143.535 32.02 143.678 32.5032L148.09 30.4453C148.169 30.4111 148.24 30.4626 148.305 30.5997C148.387 30.7129 148.464 30.8586 148.536 31.0368C148.628 31.2116 148.7 31.3899 148.751 31.5715C148.802 31.7531 148.827 31.8439 148.827 31.8439L143.952 34.9285C143.982 35.1135 144.065 35.5538 144.201 36.2493C144.358 36.9414 144.536 37.7671 144.737 38.7264C144.934 39.6652 145.144 40.6862 145.369 41.7894C145.589 42.8721 145.798 43.8828 145.995 44.8216C146.192 45.7603 146.361 46.5877 146.5 47.3038C146.636 47.9993 146.719 48.4396 146.749 48.6246C146.81 49.248 146.676 49.5868 146.347 49.6411C146.039 49.692 145.674 49.5937 145.253 49.3464L142.27 36.0611ZM151.153 35.9578C151.105 35.7967 151.032 35.5448 150.933 35.2022C150.831 34.839 150.713 34.4466 150.581 34.0251C150.468 33.6002 150.341 33.1462 150.198 32.663C150.055 32.1799 149.917 31.7275 149.784 31.306C149.668 30.8606 149.561 30.4666 149.462 30.1239C149.363 29.7812 149.29 29.5294 149.242 29.3683L149.207 29.1525C149.163 28.8853 149.175 28.6404 149.244 28.4179C149.333 28.192 149.522 28.0553 149.81 28.0078C150.139 27.9536 150.418 28.0448 150.647 28.2815C150.876 28.5182 151.064 28.8251 151.21 29.2021C151.377 29.5757 151.51 29.9972 151.609 30.4666C151.707 30.9359 151.782 31.3882 151.833 31.8232C151.904 32.2549 151.946 32.6386 151.959 32.9742C151.989 33.2859 152.013 33.4932 152.03 33.596L152.142 34.2743C152.193 34.5826 152.239 34.9235 152.279 35.2969C152.337 35.6463 152.381 35.9769 152.411 36.2887C152.462 36.597 152.497 36.8128 152.518 36.9362C152.206 36.9665 151.918 36.8872 151.655 36.6984C151.412 36.5062 151.245 36.2593 151.153 35.9578ZM159.35 46.2926C159.354 46.3132 159.549 46.1542 159.937 45.8158C160.345 45.474 160.811 45.0381 161.336 44.5081C161.878 43.9542 162.426 43.3677 162.978 42.7487C163.527 42.1091 163.968 41.5191 164.301 40.9785C164.635 40.4379 164.784 40.0014 164.751 39.6692C164.734 39.3129 164.419 39.1326 163.806 39.1282C163.049 39.1474 162.424 39.2611 161.93 39.4692C161.457 39.6739 161.029 39.8924 160.645 40.1247C160.261 40.3569 159.896 40.5755 159.55 40.7804C159.224 40.982 158.842 41.0978 158.403 41.1279C157.499 41.2771 156.826 41.103 156.385 40.6056C155.961 40.0843 155.67 39.3406 155.51 38.3745C155.351 37.4084 155.416 36.4581 155.705 35.5235C155.991 34.5684 156.421 33.7163 156.994 32.9672C157.567 32.2181 158.265 31.5856 159.088 31.0698C159.908 30.5335 160.78 30.189 161.705 30.0364C162.075 29.9754 162.398 29.9537 162.676 29.9713C162.953 29.9889 163.126 30.2032 163.194 30.6143C163.241 30.9021 163.164 31.2 162.961 31.5079C162.755 31.7952 162.498 31.9643 162.19 32.0152C162.169 32.0186 162.116 32.0168 162.03 32.0098C161.941 31.9822 161.851 31.9444 161.758 31.8963C161.666 31.8482 161.577 31.8207 161.491 31.8137C161.402 31.7861 161.347 31.774 161.327 31.7774C160.639 31.7009 160.017 31.8985 159.461 32.3703C158.905 32.842 158.433 33.4371 158.045 34.1557C157.674 34.8504 157.406 35.5914 157.24 36.3789C157.071 37.1458 157.034 37.8171 157.129 38.3926C157.166 38.6187 157.238 38.7969 157.344 38.9273C157.467 39.0337 157.605 39.1058 157.759 39.1437C157.934 39.1783 158.115 39.1906 158.304 39.1806C158.509 39.1467 158.715 39.1128 158.921 39.0789C159.332 39.0111 159.733 38.8816 160.123 38.6905C160.535 38.4959 160.922 38.2842 161.286 38.0553C161.669 37.8231 162.057 37.6114 162.448 37.4202C162.859 37.2257 163.291 37.0911 163.743 37.0165C163.949 36.9826 164.185 37.007 164.452 37.0897C164.715 37.1517 164.969 37.2789 165.212 37.4711C165.451 37.6427 165.666 37.8606 165.858 38.1246C166.046 38.3681 166.177 38.6526 166.252 38.9781C166.423 39.2455 166.444 39.6326 166.317 40.1393C166.21 40.6426 166.005 41.1937 165.703 41.7925C165.4 42.3914 165.017 43.0141 164.554 43.6607C164.087 44.2866 163.613 44.8715 163.133 45.4153C162.649 45.9385 162.162 46.3778 161.672 46.7332C161.185 47.1091 160.755 47.3173 160.381 47.3578C159.97 47.4256 159.703 47.343 159.58 47.1099C159.478 46.8734 159.401 46.601 159.35 46.2926ZM183.986 42.6091C183.829 42.0437 183.649 41.2711 183.445 40.2912C183.241 39.3113 183.024 38.2492 182.793 37.1049C182.558 35.94 182.307 34.7357 182.038 33.492C181.79 32.2449 181.542 31.0611 181.294 29.9407C181.046 28.8203 180.794 27.8061 180.539 26.8981C180.304 25.9866 180.089 25.2619 179.895 24.7238C179.827 24.3127 179.881 24.0611 180.056 23.9689C180.227 23.8562 180.457 23.7761 180.744 23.7286C180.786 23.7218 180.878 23.7066 181.022 23.6828C181.166 23.6591 181.27 23.6524 181.335 23.6628C181.622 24.2489 181.867 25.032 182.071 26.0118C182.292 26.9678 182.508 28.0196 182.718 29.1673C182.949 30.3117 183.177 31.4988 183.401 32.7287C183.646 33.9553 183.911 35.1151 184.197 36.2081C184.217 34.5368 184.231 33.1514 184.239 32.052C184.269 30.9492 184.313 30.0656 184.372 29.4013C184.449 28.713 184.534 28.2028 184.627 27.8707C184.737 27.5147 184.876 27.2701 185.044 27.1368C185.233 27.0001 185.442 26.9234 185.671 26.9066C185.918 26.866 186.206 26.8185 186.534 26.7642C186.904 26.7032 187.226 26.7979 187.5 27.0484C187.794 27.2955 188.04 27.635 188.238 28.0669C188.456 28.4953 188.641 28.9717 188.79 29.496C188.961 30.0169 189.119 30.5292 189.266 31.0329C189.409 31.5161 189.545 31.9581 189.674 32.3591C189.824 32.7566 189.995 33.024 190.187 33.1614C190.45 31.5555 190.687 30.239 190.897 29.2118C191.108 28.1847 191.301 27.3716 191.477 26.7725C191.649 26.1529 191.818 25.7027 191.982 25.4222C192.147 25.1416 192.309 24.9672 192.466 24.899C192.621 24.8102 192.763 24.7762 192.893 24.7969C193.044 24.8143 193.191 24.8111 193.335 24.7874C193.89 24.6958 194.359 24.9141 194.741 25.4422C195.223 26.3129 195.595 27.1595 195.857 27.982C196.116 28.7838 196.32 29.5736 196.47 30.3514C196.616 31.1085 196.736 31.8383 196.831 32.5405C196.946 33.2394 197.078 33.9144 197.228 34.5654C197.398 35.213 197.618 35.8418 197.888 36.4519C198.178 37.0586 198.589 37.6347 199.123 38.1802C199.013 38.5362 198.885 38.7894 198.741 38.9399C198.594 39.0698 198.376 39.1585 198.088 39.2059C197.842 39.2466 197.612 39.2 197.4 39.0661C197.185 38.9116 196.995 38.7212 196.831 38.4949C196.664 38.248 196.517 37.9977 196.39 37.7441C196.285 37.487 196.184 37.2608 196.088 37.0654C195.521 34.1395 195.016 31.9107 194.574 30.379C194.148 28.8234 193.754 28.0333 193.391 28.0087C193.028 27.9841 192.689 28.7473 192.375 30.2983C192.078 31.8253 191.783 34.1967 191.49 37.4122C191.445 37.5252 191.363 37.6021 191.243 37.643C191.123 37.6839 190.991 37.7162 190.847 37.7399C190.724 37.7603 190.59 37.7823 190.446 37.8061C190.32 37.8059 190.196 37.8262 190.076 37.8671C189.064 34.9302 188.275 32.8328 187.708 31.5749C187.159 30.293 186.735 29.8351 186.436 30.201C186.138 30.567 185.93 31.7414 185.814 33.7243C185.694 35.6866 185.578 38.4401 185.466 41.9848L183.986 42.6091ZM200.847 33.0815C200.748 33.1191 200.599 33.1753 200.4 33.2503C200.201 33.3253 199.987 33.3712 199.758 33.388C199.528 33.4047 199.323 33.3753 199.141 33.2996C198.939 33.2273 198.818 33.0679 198.777 32.8212C198.754 32.6773 198.767 32.5695 198.819 32.4976C198.87 32.4258 198.958 32.3163 199.081 32.1693C199.473 31.7247 199.775 31.1892 199.988 30.5627C200.219 29.9124 200.414 29.2363 200.572 28.5344C200.728 27.812 200.895 27.0982 201.074 26.3929C201.271 25.6637 201.52 24.9997 201.822 24.4008C202.125 23.802 202.537 23.2906 203.058 22.8668C203.579 22.443 204.263 22.1718 205.109 22.0534C205.459 21.9957 205.863 22.0135 206.322 22.1068C206.78 22.2 207.218 22.36 207.636 22.5867C208.05 22.7929 208.413 23.071 208.724 23.4208C209.035 23.7707 209.229 24.182 209.307 24.6548C209.437 24.8023 209.373 25.0556 209.116 25.4148C208.879 25.7706 208.534 26.1759 208.081 26.6307C207.625 27.0649 207.1 27.5315 206.507 28.0306C205.931 28.5057 205.372 28.9569 204.83 29.3841C204.288 29.8113 203.811 30.1855 203.4 30.5068C202.988 30.8281 202.721 31.0622 202.597 31.2093C202.528 31.4318 202.485 31.6817 202.467 31.9591C202.45 32.2365 202.441 32.502 202.44 32.7554C202.457 32.9849 202.472 33.2041 202.486 33.4131C202.516 33.5981 202.54 33.742 202.557 33.8447C202.621 34.2353 202.672 34.6704 202.709 35.1499C202.766 35.6261 202.861 36.0749 202.994 36.4964C203.144 36.894 203.377 37.2146 203.691 37.4583C204.003 37.6814 204.477 37.7404 205.114 37.6353C205.792 37.5234 206.402 37.2539 206.944 36.8267C207.483 36.3789 207.968 35.866 208.401 35.2879C208.833 34.7098 209.208 34.099 209.524 33.4557C209.861 32.8089 210.153 32.2117 210.4 31.6641C210.665 31.0926 210.904 30.6204 211.117 30.2474C211.33 29.8744 211.529 29.6727 211.714 29.6422C211.919 29.6083 212.142 29.6138 212.381 29.6587C212.638 29.6797 212.789 29.8238 212.833 30.091C212.894 30.461 212.813 30.9284 212.589 31.4931C212.386 32.0545 212.085 32.6636 211.687 33.3206C211.309 33.9741 210.849 34.6412 210.307 35.3219C209.782 35.9786 209.238 36.5856 208.675 37.1429C208.109 37.6797 207.541 38.1429 206.972 38.5324C206.4 38.9013 205.877 39.1248 205.404 39.2027C204.479 39.3553 203.743 39.2445 203.196 38.8703C202.648 38.496 202.216 37.9867 201.898 37.3423C201.602 36.6944 201.38 35.992 201.234 35.2348C201.105 34.4537 200.976 33.7359 200.847 33.0815ZM205.147 23.8207C204.798 23.8784 204.457 24.1141 204.124 24.528C203.788 24.9213 203.485 25.3934 203.217 25.9444C202.966 26.4714 202.77 27.0105 202.629 27.5617C202.505 28.089 202.47 28.517 202.524 28.8459C202.832 28.7951 203.256 28.6091 203.794 28.2881C204.349 27.9431 204.886 27.5484 205.404 27.104C205.922 26.6596 206.364 26.2065 206.732 25.7448C207.099 25.283 207.254 24.8774 207.196 24.528C207.166 24.343 207.068 24.2007 206.904 24.1011C206.74 24.0015 206.548 23.9275 206.329 23.8792C206.13 23.8275 205.925 23.798 205.713 23.7908C205.5 23.7836 205.312 23.7936 205.147 23.8207ZM212.871 22.4516C212.559 20.5605 212.292 18.6832 212.069 16.8196C211.843 14.9355 211.628 12.9966 211.426 11.0029C211.461 10.8283 211.516 10.7137 211.591 10.659C211.663 10.5838 211.771 10.5343 211.915 10.5105C212.121 10.4766 212.275 10.5146 212.377 10.6243C212.476 10.7136 212.548 10.8284 212.592 10.9689C212.657 11.106 212.695 11.2688 212.705 11.4572C212.732 11.6216 212.756 11.7655 212.776 11.8888L214.332 21.3238C214.393 21.6938 214.488 22.0793 214.618 22.4802L215.006 23.6831C215.156 24.0806 215.272 24.4627 215.354 24.8293C215.453 25.172 215.481 25.4734 215.44 25.7336C215.436 25.9665 215.345 26.1821 215.166 26.3805C215.008 26.5755 214.816 26.6916 214.59 26.7289C214.22 26.7899 213.933 26.6473 213.728 26.301C213.523 25.9548 213.359 25.5384 213.237 25.0518C213.135 24.5619 213.054 24.0685 212.993 23.5718C212.952 23.0717 212.912 22.6983 212.871 22.4516ZM217.179 36.4687L217.097 35.9754C217.08 35.8726 217.074 35.7681 217.077 35.662C217.078 35.5352 217.102 35.4257 217.15 35.3333C217.198 35.2409 217.284 35.1845 217.407 35.1642C217.818 35.0964 218.071 35.1602 218.167 35.3555C218.28 35.527 218.358 35.7463 218.402 36.0135C218.45 36.3013 218.448 36.5445 218.396 36.743C218.365 36.9382 218.144 37.0697 217.732 37.1375C217.609 37.1579 217.51 37.132 217.435 37.06C217.359 36.9879 217.303 36.9022 217.266 36.8028C217.225 36.6829 217.196 36.5715 217.179 36.4687Z" fill="#B93160"/>
</svg>
